<?xml version="1.0" encoding="utf-8"?>
<!-- Generator: Adobe Illustrator 28.1.0, SVG Export Plug-In . SVG Version: 6.00 Build 0)  -->
<svg version="1.1" id="_x3C_Layer_x3E_" xmlns="http://www.w3.org/2000/svg" xmlns:xlink="http://www.w3.org/1999/xlink" x="0px"
	 y="0px" viewBox="0 0 144 217.3" style="enable-background:new 0 0 144 217.3;" xml:space="preserve">
<style type="text/css">
	.st0{fill:none;stroke:#000000;stroke-width:6.94;stroke-miterlimit:10;}
	.st1{fill:none;stroke:#4B4C4C;stroke-miterlimit:10;}
</style>
<path class="st0" d="M2407.2,1534.2"/>
<path class="st1" d="M20.8,216.9c-22.1-42.6,43.7-85.5,55.2-91.8c1.4-0.7,3.1,0.1,3.4,1.6c4.2,21.3-37.1-18.1-41.2-32.6
	c-2.6-21.5,24.6-20.5,41.5-19.5c30.9,1.8,83.8,7.9,35.1,38.2c-13.2,8.3-29.8-2.5-33.1-16.5c-3-10.2-1.2-21.7-6.2-31
	c-10.1-18.6-37.6-16.2-49.1,0c-37.1,68.1,46.8,95.8,78,13.7c6.3-14.7,18.8-13.3,23.2,1.9c13,27.1-25.5,92.9-40.5,52.1
	c-4.5-16.5-1.4-35,8.4-49c9.9-11.6,12.8-22.9-1.6-32.3C41.4,22.6,4.8,95,61.5,121.1c12.9,7.1,9,13.3-0.4,24.2
	c-37.5,40.3-34.5-38.3,6.8-50.2c19.1-5.2,53.4,2.3,57.9-22.5c1.3-17.7-17.1-23.4-28.8-11.4c-5,4.6-8.7,10.5-13.4,15.5
	c-18.7,22-66.6,11-62.6-14.6c3.3-21.7,31.8-27.2,40.5-15c14.5,24.1-11,55.3,18.2,77.1c71.9,45.4,79-65.1-51.9-11.9
	c-51.3,31.1,65.9,71.6,75.8,14.4c5.4-20.1-11.4-55.3-29.2-65.8c-16.8-7-38.7,1.1-48.8,15.8c-32.6,63.2,96.8,66.2,99.8,10.3
	c2.9-20.6-23.7-52.4-44.5-37c-8.5,8.3,0.2,19.7,3.2,29.6c5.3,19.6,24,68.2-6.8,82.5c-11.5,5.3-23.5-0.5-29.8-9.1
	c-9.5-11.7-19.1-23.5-28.6-35.2c-3.6-4.5-7.4-9.2-8.6-14.8c-2.1-41,51.1-27.2,76.1-36.2C97.9,62.8,102,46,91.2,37.9
	C58.6,16.4,37,62.3,63.9,82.5c14.8,10.8,55.7,25,62.1,43.9c6.5,20.7-20.4,35.8-37,21.8c-6.4-5.1-8.6-12.7-12.6-19.8
	C22.9,35,38.2,30.1,48.5,0.1"/>
</svg>
