<?xml version="1.0" encoding="utf-8"?>
<!-- Generator: Adobe Illustrator 28.1.0, SVG Export Plug-In . SVG Version: 6.00 Build 0)  -->
<svg version="1.1" id="_x3C_Layer_x3E_" xmlns="http://www.w3.org/2000/svg" xmlns:xlink="http://www.w3.org/1999/xlink" x="0px"
	 y="0px" viewBox="0 0 1353 1268.9" style="enable-background:new 0 0 1353 1268.9;" xml:space="preserve">
<style type="text/css">
	.st0{fill:none;}
</style>
<path class="st0" d="M195.2,697.9l586.4,81.7l211.6-106.4c0.5-0.9,1.7-4.3,1.4-14.3L781.9,765.2c-0.5,0.3-1.1,0.4-1.7,0.4
	c-0.2,0-0.4,0-0.5,0c0,0-286.8-39.9-467.6-65L282,702c-0.2,0-0.5,0-0.7,0c-4.3,0-8.3-1.5-11.6-4.2l-1.9-1.5
	c-10.9-1.5-26.4-3.9-41.4-6.3c-12.1-1.9-23.6-3.7-31.1-4.8L195.2,697.9z"/>
<path class="st0" d="M-583.5,615.4c-0.2-73.4-0.5-149.3,0-250.6l-23.9-5l-0.3,495l24.1,7.9C-583.1,763.1-583.3,688-583.5,615.4z"/>
<path class="st0" d="M-575.8,615.4c0.2,73,0.5,148.4,0,248.9c10.5-1.7,42.5-13.5,46.9-18.7l-0.4-500.9c0-1.7-1.2-3.7-2.8-4.9
	c-4.6,6.8-18.1,22.8-43.7,26.5C-576.2,466.8-576,542.3-575.8,615.4z"/>
<path class="st0" d="M-577.1,358.7c20.4-2.9,32-14.5,37-21.1l-67.3-13.8l0,28.1l28.8,6C-578,358.1-577.5,358.3-577.1,358.7z"/>
<path class="st0" d="M936.6,670.7l-154.9,72c-0.5,0.2-1.1,0.4-1.6,0.4c-0.2,0-0.3,0-0.5,0l-350.7-48l-75,3.6
	c172.8,24,407,56.6,425.7,59.2L994,650.5c-0.2-1.9-0.4-4-0.7-6.2l-40.6,18.9c-3.2,4.3-8.3,7.2-14.1,7.4L936.6,670.7z"/>
<path class="st0" d="M874.7,763.4c15.3-2.5,28.8-4.6,39.8-6.4l-25.2-1.1L874.7,763.4z"/>
<path class="st0" d="M-469.7,862.2c12.4-6.9,20.2-17.7,20.5-28.3c-10.1-25.3-35.3-30.7-49.9-28c-27.6,5-35.8,31.5-31.9,54.1
	C-510.8,871.6-488.1,872.5-469.7,862.2z"/>
<path class="st0" d="M-639.8,780.9c0.3-66.4,0.9-155.1,1.4-244.7c0.6-94.9,1.2-190.7,1.5-261.9l-342.3-49.4l-10.2,3.9l290.2,57.1
	c1.3,0.3,2.3,1.2,2.8,2.3c0.6,0.7,1,1.6,1,2.6c-0.9,190.9,0,553.6,0.2,620.6l55.4-21.9C-640.3,881.1-640.2,856.7-639.8,780.9z"/>
<path class="st0" d="M-703,917c-0.1-49.1-1.1-426.4-0.2-624l-300.8-59.2c-0.1,0-0.1,0-0.2-0.1c-0.4-0.1-0.8-0.3-1.2-0.5
	c0,0-0.1,0-0.1-0.1c-0.3-0.2-0.6-0.5-0.9-0.9c-0.1-0.1-0.2-0.3-0.2-0.4c-0.1-0.2-0.2-0.3-0.3-0.5c0-0.1,0-0.2-0.1-0.3
	c-0.1-0.3-0.1-0.5-0.1-0.8c0-0.3,0-0.5,0-0.8c0-0.1,0-0.2,0-0.3c0-0.1,0.1-0.3,0.2-0.4c0.1-0.2,0.2-0.5,0.3-0.7
	c0.1-0.2,0.3-0.4,0.5-0.7c0.1-0.2,0.3-0.3,0.4-0.5c0.2-0.2,0.5-0.3,0.7-0.5c0.1-0.1,0.2-0.2,0.3-0.2l23.6-9.1c0.1,0,0.1,0,0.2,0
	c0.2-0.1,0.5-0.1,0.7-0.1c0.3,0,0.5-0.1,0.8,0c0.1,0,0.1,0,0.2,0l346.7,50.1c0.2,0,0.3,0.1,0.5,0.2c0.3,0.1,0.5,0.1,0.7,0.3
	c0.2,0.1,0.4,0.3,0.6,0.4c0.2,0.2,0.4,0.3,0.5,0.5c0.2,0.2,0.3,0.4,0.4,0.6c0.1,0.2,0.2,0.4,0.3,0.7c0.1,0.2,0.1,0.5,0.1,0.7
	c0,0.2,0.1,0.3,0.1,0.5c-0.4,71.6-0.9,168.9-1.5,265.3c-1,162.4-2,329.9-1.7,352.4c0.2,0.2,0.5,0.4,0.6,0.7c1.7,0.2,4.6,0.1,8.3-1
	c5.1-1.5,7.8-3.7,8.1-4.5l0.3-619.2c0-2.4-1.7-4.5-4.1-4.8l-367-51.7c-0.7-0.1-1.4,0-2.1,0.2l-33.8,11.1c-2,0.7-3.3,2.5-3.3,4.6
	v121.9c0,0,0,0.1,0,0.1l276.2,57.5c6,0.8,10.6,6.2,10.5,12.5l-4.9,500l34.1,10.6c1.6,0.6,3.2,0.4,4.5-0.6c1.3-0.9,2-2.4,2-3.9
	C-703,922-703,920.2-703,917C-703,917-703,917-703,917z"/>
<path class="st0" d="M-750.5,411.4l-331.9-69.1c-0.4,0-1.1,0-1.7,0.2l-27.6,12.7c-0.1,0.1-0.3,0.1-0.4,0.2c-2,0.7-3.3,2.5-3.3,4.6
	l12.8,475.8c103.5-31.9,183.4-73.7,231-123.5c29.1-30.4,45.5-63.3,49-97.8c-0.2-49.5-0.2-103.6,0.1-168l-272.7-77.1
	c-1.5-0.4-2.6-1.7-2.8-3.3c-0.2-1.6,0.6-3.1,2-3.8l21.5-11.4c0.8-0.4,1.8-0.6,2.7-0.3l305.5,72.4c1.8,0.4,3,2,3,3.8
	c-0.5,102.3-1.2,180.5-2,256.1c-0.7,74.7-1.4,151.9-1.9,252.5c1.2,0.3,2.3,0.6,3.3,1.2c1.4,0.8,5.1,0.4,8.5-1.6c2.7-1.6,4-3.4,4-4.4
	l5-514.3v0C-746.4,413.7-748.1,411.7-750.5,411.4z"/>
<path class="st0" d="M-822.4,649.1c-8.3,23.9-22.9,46.7-43.6,68.4c-48.7,50.9-130.4,93.7-236.4,126.1l0,0c0,2,1.3,3.7,3.1,4.4
	l270.9,125.3c1.2,0.4,2.8,0.2,4.1-0.7c1.3-0.9,2-2.4,2-3.9l0-2.3c0-1.4,0.2-2.8,0.6-4c0.5-105.8,0.1-183.7-0.4-259.1
	C-822.2,685.4-822.3,667.5-822.4,649.1z"/>
<path class="st0" d="M-1660.3,686.8c46.8-19.8,202.5-59.3,238.2-68.3l-328.4-291.6c-13.3,0-113.2,0.7-157.6,9.4
	c-36.7,7.2-141.4,51.2-170.6,100.5l264.7,344.8C-1796.8,760-1748,723.9-1660.3,686.8z"/>
<path class="st0" d="M-1809.9,788.9l1.4,8.9c2.6-0.2,5.4-0.2,8.2,0.1c11.9-17.7,37.6-39.5,139.5-77.8
	c17.6-6.6,217.1-71.4,245.9-80.7l-2.3-14.1c-28,7-193,48.7-240.1,68.7C-1747.7,732.2-1795.7,768.7-1809.9,788.9z"/>
<path class="st0" d="M-504.6,790.7c-7.4-5.3-56.7-37.3-157.9-25.4c-101.6,11.9-286.7,90.5-306.6,99.1l-2.7,11
	c41-12.5,254.5-77.5,307.4-84.3c95.7-12.3,146.3,0,160.5,4.4L-504.6,790.7z"/>
<path class="st0" d="M-1756.2,828.3l347.1-141.7c2.4-1,4-3.1,4.4-5.5l-5.3-16l-357,147.7C-1762.8,816.8-1759.1,822-1756.2,828.3z"/>
<path class="st0" d="M-1791.8,799.2c6.1,1.5,12.3,4,18.1,7.9l361.8-149.6l-1.7-10.4c-31.6,10.2-227.4,73.8-244.4,80.2
	C-1752.2,762.6-1779.5,783-1791.8,799.2z"/>
<path class="st0" d="M-663.3,798.8c-53.9,6.9-285.9,77.8-310.5,85.3l-1.8,7.3c40-9.4,265.2-62.2,314.1-69.6
	c92.3-14,125.7-10.8,134.6-9.3c4.3-4.7,9.6-8.5,15.7-11.1C-529.9,796.7-579.1,788-663.3,798.8z"/>
<path class="st0" d="M-985.3,916.6c-0.1,0-0.2,0-0.3,0c0,0,0,0-0.1,0c-5.3,0.4-10.9,0.7-16.7,1l6.6,16.3c0.8,2.5,3,3.9,5.2,3.4
	L-539,859c-1.1-7.3-1-14.3,0.1-20.7L-985.3,916.6z"/>
<path class="st0" d="M185.4,519.6l-6.9,4.4c-2.5,1.6-3.5,4.8-2.4,7.6l153.1,378.6c4.8-0.3,9.4-0.5,13.9-0.8L185.4,519.6z"/>
<path class="st0" d="M-663.4,757.7c77-9.1,124.5,6.3,147.7,17.6L-776,436.2c-15.8-10.2-70.8-41.8-132.7-31.4
	c-92,15.5-200.4,68.4-220,78.2l158.3,373.6C-942.8,844.8-763.4,769.4-663.4,757.7z"/>
<path class="st0" d="M-660.3,829.5c-50.5,7.7-291.2,64.3-317.3,70.4l-1.9,7.8l442.6-77.7c1.2-3.7,2.8-7.2,4.7-10.4
	C-544.6,818.4-579.6,817.3-660.3,829.5z"/>
<polygon class="st0" points="358.4,862 200.5,489.4 188.8,507.4 348.7,902.2 "/>
<path class="st0" d="M-1083.8,364.4l266.3,75.3c1.7,0.5,2.8,2,2.8,3.7c-0.3,56-0.3,104.1-0.1,148.2c0.4,0.6,0.7,1.2,0.7,1.9
	c0.3,7.2,0.1,14.2-0.6,21.2c0.1,30.7,0.3,59.7,0.4,88.3c0.4,73.5,0.9,149.5,0.4,251.2l39-18.4c0.5-100.9,1.2-178.4,1.9-253.3
	c0.7-74.8,1.4-152.2,1.9-253l-301-71.4L-1083.8,364.4z"/>
<path class="st0" d="M219.4,657.3l-16-12.9l-24.8,8c3.9,0.5,7.9,0.9,12.2,1.4C199.4,654.8,209,655.9,219.4,657.3z"/>
<path class="st0" d="M413.2,789.6c62.8,5.7,127.7,11.6,197.2,18.8c5.6-1,52.5-9.1,82.6-14.2c-93.6-12.8-237.3-33.2-351.6-49.4
	l-139.7,17.1c-1.3,0.1-1.9,1.5-2.1,2c-0.7,1.8-0.3,3.5,0,3.8c2.1,0.5,12.3,2.4,16.2,3.1C285.3,778,350.3,783.9,413.2,789.6z"/>
<path class="st0" d="M791.5,797.3l213.8-109.6c4.8-2.5,7.7-7.5,7.4-12.9l-1.5-37.5c-0.2-4.4-3.5-8-7.9-8.5l-46.9-5.2l0.1,28.2
	c0,0.4-0.1,0.7-0.1,1l38.3-17.8c0.7-0.4,1.5-0.5,2.4-0.4c1.7,0.3,3,1.6,3.2,3.3l0.1,0.5c0.7,5.4,1.2,9.9,1.5,13.9c0,0,0,0.1,0,0.1
	c1.6,21.3-2,24.9-3.6,26.4c-0.3,0.3-0.6,0.5-1,0.7L784,787c-0.5,0.3-1.1,0.4-1.7,0.4c-0.2,0-0.4,0-0.5,0l-589.9-82.2l-17.7,7.8
	c76.5,11,553.4,79.2,611,85.5C787.4,798.7,789.5,798.3,791.5,797.3z"/>
<path class="st0" d="M281.6,694.3L935.5,663c0,0,0.1,0,0.1,0l2.7-0.1c5.9-0.2,10.5-5,10.5-10.9l-0.4-77.1
	c-18.6,1.4-88.7,4.7-173.6,8.2c-0.1,0-0.1,0-0.2,0c-0.2,0-0.4-0.1-0.6-0.1l-66.5,17c-0.3,0.1-0.6,0.1-1,0.1c-0.2,0-0.3,0-0.5,0
	l-98-11.8c-127.4,4.2-261.4,6.9-317.1,7.1c1,9.2,1.5,18.6,1.5,28c0,0.1,0,0.1,0,0.2c0,19.4-2,38.8-6,57.4c0,0,0,0.1,0,0.1
	c0,0.1-0.1,0.3-0.2,0.4c-0.1,0.3-0.3,0.6-0.5,0.9c0,0.1,0,0.1-0.1,0.2c-0.1,0.1-0.1,0.1-0.2,0.2c-0.3,0.3-0.6,0.6-0.9,0.8
	c-0.1,0.1-0.2,0.2-0.4,0.2c-0.5,0.2-1,0.3-1.5,0.3h0h0c0,0,0,0,0,0c-0.3,0-0.5,0-0.8-0.1c-0.1,0-0.1-0.1-0.2-0.1
	c-0.3-0.1-0.6-0.2-0.9-0.4c-0.1-0.1-0.3-0.1-0.4-0.2c0,0-0.1,0-0.1-0.1c-18.4-14.6-37.4-29.1-55.7-43.2
	c-17.7-13.6-36-27.7-53.9-41.8l-8,3.7l111.8,90.2C276.6,693.6,279.1,694.4,281.6,694.3z"/>
<path class="st0" d="M229.5,633.6c16.7,12.8,33.9,26.1,50.8,39.4c1-5.1,1.8-10.3,2.5-15.6l-108.5-80.6l0.8,14.6
	C193.1,605.7,211.6,619.9,229.5,633.6z"/>
<path class="st0" d="M233.1,559.6C213,546.2,194,533.4,170.9,517l1,18.1l112.9,81.1c-0.2-7.6-0.7-15.2-1.6-22.6
	C264.6,580.6,248.6,569.9,233.1,559.6z"/>
<path class="st0" d="M608.7,908.6c-0.7,1.3-2,2.1-3.4,2.1c-0.1,0-0.3,0-0.4,0c-2.6-0.3-255.7-28.1-390-44l-9.8,0.8
	c-2,0.9-2.7,3.6-2.5,5.9c0.2,2.1,1.2,4.7,3.5,5l401.5,45.4l121.1-31c-41.9-2.8-79.5-6.1-111.4-10
	C615.6,892.3,612.7,900.9,608.7,908.6z"/>
<path class="st0" d="M956.9,823.1l0.8-53.9c-0.2-5-3.7-9.2-8.5-10.5c-0.5,0.4-1,0.6-1.7,0.7c0,0-40.2,6.4-95.2,15.3L795,804.2
	c-2.7,1.4-5.6,2.1-8.6,2.1c-0.7,0-1.4,0-2.1-0.1c-10.2-1.1-33.7-4.2-65.8-8.5c-7,1.2-80.8,13.7-103.7,17.8
	c4.5,22.5,5.7,42.4,3.7,59.6c37.6,4.6,83.2,8.3,134.4,11.5L946.5,837C952.7,835.4,957.1,829.5,956.9,823.1z"/>
<path class="st0" d="M611.4,847.5L219,807.2l-0.1,23.1l392,43.8C611.9,865.9,612,857,611.4,847.5z"/>
<path class="st0" d="M412.5,797.3c-61.7-5.6-125.4-11.4-193.4-18.4l-0.1,20.6l391.8,40.2c-0.8-7.6-2-15.5-3.8-23.9
	C538.6,808.7,474.5,802.9,412.5,797.3z"/>
<path class="st0" d="M218.8,859.3c127.4,15.1,356.8,40.4,384.2,43.4c3-6.3,5.2-13.3,6.6-21l-390.8-43.6L218.8,859.3z"/>
<path class="st0" d="M809.5,573.8c72.7-3.1,123.4-5.6,138.1-6.7c-0.9-1.8-2.3-3.3-4.3-4.1l-36.1-14.2L809.5,573.8z"/>
<path class="st0" d="M708.4,477.3c86.6-15.7,239.8-41,305.4-51.8l-389.3-17.1c-1.9-0.1-3.7-0.1-5.6,0.1l-318.8,21.9
	c-1.1,0.1-1.7,1.5-1.9,2c-0.7,1.8-0.3,3.5,0,3.8c0.2,0,0.3,0.2,0.5,0.2c0.1,0,0.3-0.1,0.4,0c69.6,7.3,138.4,14,204.9,20.5
	C570.4,463.4,639,470.1,708.4,477.3z"/>
<path class="st0" d="M710.5,519.2l-394.4-40.5l0,22.1l394.1,43.7C711.2,535.8,711.1,527.3,710.5,519.2z"/>
<path class="st0" d="M316.1,527.7l386.9,43.6l0.2-0.5c2.8-6.1,4.6-12.4,5.8-18.7l-392.9-43.5L316.1,527.7z"/>
<polygon class="st0" points="471.1,693 779.5,735.1 916.1,671.7 "/>
<path class="st0" d="M256,686.8l-25.1-20.3c-13.2-1.7-24.9-3.2-35.4-4.4l-0.1,15.2c7.6,1.1,19.6,3,32.2,5
	C237.3,683.9,247.3,685.5,256,686.8z"/>
<path class="st0" d="M301.3,540.2c0.1,1.6,1.2,3.4,3.6,3.7l401.5,48.4l338.8-86.7c6.2-1.6,10.6-7.4,10.4-13.9l0.8-53.9
	c-0.2-5-3.7-9.2-8.5-10.5c-0.5,0.4-1,0.6-1.6,0.7c-2.2,0.4-219.9,35.9-332.7,56.2c0.3,1.8,0.6,3.7,0.9,5.7c3.8,23,9,54.6-4.2,84
	l-1.4,3c-0.6,1.4-2,2.3-3.5,2.3c-0.1,0-0.3,0-0.4,0l-391.2-44.1l-9.8,0.8C301.8,536.8,301.2,538.7,301.3,540.2z"/>
<path class="st0" d="M284.9,625.8L172.5,545l1.3,21.9l110,81.7C284.4,641,284.8,633.4,284.9,625.8z"/>
<path class="st0" d="M705.8,484.8c-68.8-7.2-136.7-13.8-202.5-20.3c-60.9-5.9-123.7-12.1-187.2-18.7l0,25l393.7,40.4
	c-0.8-7.2-1.9-14-2.9-20.1C706.4,489,706.1,486.9,705.8,484.8z"/>
<path class="st0" d="M168.8,506C168.8,506,168.8,506,168.8,506c26.1,18.7,46.8,32.6,68.7,47.2c15.6,10.4,31.8,21.2,50.7,34.3
	c46.6,0,156.1-2.1,269.3-5.5l-253.4-30.5c-5.7-0.7-9.8-5-10.3-10.7c-0.5-5.6,2.8-10.6,8.2-12.3c0.3-0.1,0.6-0.1,0.9-0.2l5.7-0.5
	l0-33.9l-154.1,2.2L168.8,506C168.7,505.9,168.7,506,168.8,506z"/>
<path d="M1485.7,900.8c-217.2,0-501.3-1.6-707.2-12.9l170-43.5c9.7-2.5,16.5-11.6,16.2-21.4l0.8-53.9c-0.4-10-8.1-17.9-18.1-18.5
	l-44-1.9l105.6-54.1c7.4-3.9,12-11.8,11.6-20.1l-1.5-37.4c-0.3-8.3-6.5-14.9-14.7-15.8l-47.8-5.3l-0.2-45.3c0-6.5-4-12.3-10-14.7
	l-26.2-10.3l127.2-32.6c9.7-2.5,16.5-11.6,16.2-21.4l0.8-53.9c-0.4-10-8.1-17.9-18.1-18.5l-421.1-18.5c-2.2-0.1-4.3-0.1-6.4,0.1
	l-318.8,22c-5,0.4-8.8,4.7-9.4,10.6c-0.5,5.1,1.9,9.2,5.9,10.3c0.3,0.1,0.5,0,0.8,0.1c0.4,0.2,0.8,0.4,1.3,0.4c3.3,0.4,6.7,0.7,10,1
	l0,41.2l-154.2,2.2c-3.4,0-6.4,2.3-7.4,5.6c-1,3.3,0.3,6.8,3.1,8.7l12.9,8.6l4.6,79.7l-9.1,4.2c-2.1,0.3-3.8,1.7-4.6,3.7
	c-0.9,2.4-0.2,5,1.8,6.7l40.7,32.9l-29.6,9.5c-2.4,0.8-4,3.1-3.8,5.6c0.2,2.5,2,4.6,4.7,5.1c6.3,0.8,13,1.6,20.2,2.5l-0.3,37.5
	l-25.4,11.2c-2,0.7-3.4,2.6-3.3,4.8c0.1,2.4,1.9,4.3,4.1,4.5c1.9,0.3,64.3,9.2,149.1,21.3L201,754.1c-5,0.4-8.8,4.7-9.4,10.6
	c-0.5,5.1,1.9,9.2,5.9,10.3c2.2,0.6,9.5,1.9,13.8,2.7l-0.2,81.4l-7.1,0.6c-0.3,0-0.6,0.1-0.9,0.2c-5.5,1.8-8.8,7.4-8.2,14
	c0.6,6.4,4.7,11.2,10.3,12l167.8,19c-58.9,0.1-116.5,0.2-172.8,0.3c-59.5,0.1-119.9,0.3-182,0.3v7.7c62.2-0.1,122.5-0.2,182.1-0.3
	c77.7-0.2,158-0.4,240.7-0.4l166.5,18.8c0.1,0,0.3,0,0.4,0c0.3,0,0.6,0,1-0.1l144.8-37.1c207.7,12.6,506,14.3,731.9,14.3
	c2.1,0,3.9-1.7,3.9-3.9C1489.5,902.6,1487.8,900.8,1485.7,900.8z M914.5,756.9c-11.1,1.8-24.6,4-39.8,6.4l14.7-7.5L914.5,756.9z
	 M952.8,663.1l40.6-18.9c0.3,2.3,0.5,4.3,0.7,6.2L779.6,757.8c-18.7-2.6-252.9-35.2-425.7-59.2l75-3.6l350.7,48c0.2,0,0.3,0,0.5,0
	c0.6,0,1.1-0.1,1.6-0.4l154.9-72l2.1-0.1C944.5,670.3,949.5,667.5,952.8,663.1z M226.4,690c15.1,2.4,30.6,4.9,41.4,6.3l1.9,1.5
	c3.2,2.7,7.3,4.2,11.6,4.2c0.2,0,0.5,0,0.7,0l30.1-1.4c180.8,25.1,467.6,65,467.6,65c0.2,0,0.4,0,0.5,0c0.6,0,1.2-0.1,1.7-0.4
	l212.6-106.4c0.3,10-0.9,13.4-1.4,14.3L781.6,779.6l-586.4-81.7l0.1-12.7C202.8,686.2,214.3,688.1,226.4,690z M195.4,677.4l0.1-15.2
	c10.6,1.3,22.2,2.7,35.4,4.4l25.1,20.3c-8.7-1.3-18.7-2.9-28.4-4.4C215,680.3,202.9,678.4,195.4,677.4z M471.1,693l445-21.3
	l-136.6,63.5L471.1,693z M943.3,563.1c2,0.8,3.4,2.3,4.3,4.1c-14.7,1.1-65.4,3.6-138.1,6.7l97.7-25L943.3,563.1z M299.2,436.4
	c-0.1,0-0.3,0-0.4,0c-0.2-0.1-0.3-0.2-0.5-0.2c-0.3-0.3-0.7-2,0-3.8c0.2-0.4,0.8-1.9,1.9-2L619,408.4c1.8-0.1,3.7-0.2,5.6-0.1
	l389.3,17.1c-65.5,10.8-218.8,36.2-305.4,51.8c-69.4-7.3-138-14-204.4-20.5C437.5,450.4,368.8,443.6,299.2,436.4z M316.1,500.7
	l0-22.1l394.4,40.5c0.6,8.1,0.7,16.7-0.3,25.2L316.1,500.7z M709,552c-1.2,6.3-3.1,12.6-5.8,18.7l-0.2,0.5l-386.9-43.6l0-19.2
	L709,552z M316.1,470.9l0-25c63.5,6.6,126.3,12.7,187.2,18.7c65.7,6.4,133.7,13.1,202.5,20.3c0.3,2,0.7,4.1,1,6.4
	c1,6.2,2.1,13,2.9,20.1L316.1,470.9z M313.6,535.2l391.2,44.1c0.1,0,0.3,0,0.4,0c1.5,0,2.9-0.9,3.5-2.3l1.4-3c13.2-29.4,8-61,4.2-84
	c-0.3-2-0.6-3.8-0.9-5.7C826.3,464,1044,428.4,1046.2,428c0.6-0.1,1.2-0.4,1.6-0.7c4.8,1.3,8.3,5.5,8.5,10.5l-0.8,53.9
	c0.2,6.4-4.1,12.3-10.4,13.9l-338.8,86.7l-401.5-48.4c-2.4-0.3-3.4-2.1-3.6-3.7c-0.1-1.5,0.5-3.3,2.5-4.2L313.6,535.2z M154.2,496.2
	l154.1-2.2l0,33.9l-5.7,0.5c-0.3,0-0.6,0.1-0.9,0.2c-5.4,1.7-8.7,6.7-8.2,12.3c0.5,5.6,4.6,9.9,10.3,10.7l253.4,30.5
	c-113.2,3.4-222.7,5.4-269.3,5.5c-18.9-13.1-35-23.9-50.7-34.3c-21.9-14.6-42.6-28.4-68.6-47.2c0,0,0,0-0.1,0c0,0,0,0,0,0
	L154.2,496.2z M173.7,566.9l-1.3-21.9l112.4,80.8c-0.1,7.6-0.5,15.2-1.2,22.8L173.7,566.9z M282.8,657.5c-0.7,5.3-1.5,10.4-2.5,15.6
	c-16.9-13.3-34.1-26.5-50.8-39.4c-17.9-13.7-36.4-27.9-54.3-42.2l-0.8-14.6L282.8,657.5z M171.9,535.1l-1-18.1
	c23.1,16.4,42.2,29.2,62.2,42.6c15.5,10.3,31.5,21,50.1,33.9c0.9,7.4,1.4,15,1.6,22.6L171.9,535.1z M162.8,601.7l8-3.7
	c17.8,14.1,36.2,28.2,53.9,41.8c18.3,14.1,37.3,28.7,55.7,43.2c0,0,0.1,0,0.1,0.1c0.1,0.1,0.3,0.2,0.4,0.2c0.3,0.2,0.6,0.3,0.9,0.4
	c0.1,0,0.1,0.1,0.2,0.1c0.3,0.1,0.5,0.1,0.8,0.1c0,0,0,0,0,0h0h0c0.5,0,1-0.1,1.5-0.3c0.1-0.1,0.2-0.1,0.4-0.2
	c0.4-0.2,0.7-0.5,0.9-0.8c0.1-0.1,0.2-0.1,0.2-0.2c0,0,0-0.1,0.1-0.2c0.2-0.3,0.3-0.6,0.5-0.9c0.1-0.1,0.1-0.3,0.2-0.4
	c0,0,0-0.1,0-0.1c4.1-18.6,6.1-38.1,6-57.4c0-0.1,0-0.1,0-0.2c0-9.4-0.5-18.7-1.5-28c55.6-0.1,189.7-2.8,317.1-7.1l98,11.8
	c0.2,0,0.3,0,0.5,0c0.3,0,0.6,0,1-0.1l66.5-17c0.2,0,0.4,0.1,0.6,0.1c0.1,0,0.1,0,0.2,0c84.9-3.5,154.9-6.8,173.6-8.2l0.4,77.1
	c0,5.9-4.6,10.7-10.5,10.9l-2.7,0.1c0,0-0.1,0-0.1,0l-653.8,31.3c-2.5,0-5-0.8-7-2.5L162.8,601.7z M178.6,652.3l24.8-8l16,12.9
	c-10.5-1.3-20-2.4-28.6-3.5C186.5,653.3,182.5,652.8,178.6,652.3z M174.2,713l17.7-7.8l589.9,82.2c0.2,0,0.4,0,0.5,0
	c0.6,0,1.2-0.1,1.7-0.4l213.5-107.4c0.4-0.2,0.7-0.4,1-0.7c1.5-1.5,5.2-5.1,3.6-26.4c0,0,0-0.1,0-0.1c-0.3-4-0.8-8.6-1.5-13.9
	l-0.1-0.5c-0.2-1.7-1.5-3-3.2-3.3c-0.8-0.1-1.7,0-2.4,0.4l-38.3,17.8c0-0.3,0.1-0.7,0.1-1l-0.1-28.2l46.9,5.2c4.4,0.5,7.7,4,7.9,8.5
	l1.5,37.5c0.3,5.4-2.7,10.4-7.4,12.9L791.5,797.3c-1.9,1-4.1,1.4-6.3,1.2C727.5,792.2,250.7,724,174.2,713z M199.6,767.6
	c-0.3-0.3-0.7-2,0-3.8c0.2-0.4,0.8-1.9,2.1-2l139.7-17.1c114.2,16.3,258,36.6,351.6,49.4c-30.2,5.2-77,13.3-82.6,14.2
	c-69.4-7.3-134.4-13.1-197.2-18.8c-62.9-5.7-127.9-11.6-197.4-18.8C211.9,770,201.7,768.1,199.6,767.6z M218.9,830.3l0.1-23.1
	l392.4,40.3c0.6,9.5,0.5,18.4-0.5,26.6L218.9,830.3z M609.7,881.7c-1.5,7.6-3.6,14.7-6.6,21c-27.4-3-256.8-28.3-384.2-43.4l0.1-21.2
	L609.7,881.7z M219,799.5l0.1-20.6c68,7.1,131.8,12.9,193.4,18.4c62,5.6,126.1,11.4,194.6,18.6c1.7,8.3,3,16.3,3.8,23.9L219,799.5z
	 M607.7,923.7l-401.5-45.4c-2.3-0.3-3.3-2.9-3.5-5c-0.2-2.3,0.5-5,2.5-5.9l9.8-0.8c134.2,15.9,387.4,43.8,390,44c0.1,0,0.3,0,0.4,0
	c1.4,0,2.8-0.8,3.4-2.1c4-7.7,6.9-16.4,8.7-25.9c31.9,3.9,69.5,7.2,111.4,10L607.7,923.7z M753,886.5c-51.2-3.1-96.8-6.9-134.4-11.5
	c2.1-17.2,0.8-37.2-3.7-59.6c22.9-4,96.7-16.6,103.7-17.8c32,4.3,55.5,7.4,65.8,8.5c0.7,0.1,1.4,0.1,2.1,0.1c3,0,5.9-0.7,8.6-2.1
	l57.3-29.4c55-8.9,95.2-15.3,95.2-15.3c0.6-0.1,1.2-0.4,1.7-0.7c4.8,1.3,8.4,5.5,8.5,10.5l-0.8,53.9c0.2,6.4-4.1,12.3-10.4,13.9
	L753,886.5z"/>
<path d="M-1692.7,904.9c-60.2,0-129.5-4.2-147.7-34.4c20.7,9.2,43.1,8.8,61.6-1.5c14.1-7.9,23.2-20.4,24.4-33.1l348.4-142.2
	c5.3-2.2,8.9-7.1,9.3-12.8c0-0.5,0-1-0.2-1.5l-6.8-20.5l-6.4-39.2c0-0.1,0-0.1-0.1-0.2c0,0,0-0.1,0-0.1c0-0.1-0.1-0.2-0.2-0.3
	c-0.1-0.3-0.2-0.6-0.4-0.9c-0.1-0.1-0.2-0.3-0.3-0.4c-0.1-0.1-0.2-0.3-0.3-0.4l-335-297.5c-0.7-0.6-1.6-1-2.6-1
	c-4.6,0-112.4,0.1-160.5,9.5c-30.9,6-139.7,47.7-174.3,101.6c-0.1,0-0.1-0.1-0.2-0.1c-0.2-0.2-0.5-0.3-0.7-0.5
	c-16.7-10.8-73.7-43.3-138.1-32.5c-102.3,17.2-224.3,80-225.5,80.6c-0.3,0.2-0.6,0.4-0.9,0.7c-0.1,0.1-0.1,0.2-0.2,0.2
	c-0.1,0.1-0.3,0.3-0.4,0.4l-16.7,25.8c-0.1,0.1-0.1,0.3-0.2,0.5c0,0.1-0.1,0.1-0.1,0.2c-0.2,0.4-0.2,0.8-0.3,1.3c0,0.1,0,0.2,0,0.3
	c0,0.5,0.1,0.9,0.3,1.4l1.6,3.8c0,0,0,0,0,0l-8,5.1c-5.7,3.6-8,10.8-5.4,17l152.1,376c-158.6,7.3-476.2-2.9-479.6-3c0,0-0.1,0-0.1,0
	c-2.1,0-3.8,1.6-3.9,3.7c-0.1,2.1,1.6,3.9,3.7,4c2.5,0.1,175.4,5.6,329.9,5.6c56.6,0,110.7-0.8,153-2.8l7.4,18.4
	c1.5,5.3,6.3,8.7,11.6,8.7c0.8,0,1.5-0.1,2.3-0.2l451.5-78.3c13.2,40.5,87,46,158,46c145.8,0,280.9-11.8,398.1-33.5v-7.8
	C-1411.6,893.1-1546.7,904.9-1692.7,904.9z M-1409.9,665l5.3,16c-0.4,2.5-2.1,4.6-4.4,5.5l-347.1,141.7c-2.9-6.3-6.6-11.4-10.8-15.6
	L-1409.9,665z M-1411.9,657.5l-361.8,149.6c-5.7-3.9-12-6.5-18.1-7.9c12.2-16.2,39.6-36.6,133.7-71.9c17-6.4,212.9-70,244.4-80.2
	L-1411.9,657.5z M-1414.9,639.3c-28.7,9.3-228.3,74.1-245.9,80.7c-102,38.3-127.6,60.1-139.5,77.8c-2.9-0.2-5.6-0.3-8.2-0.1
	l-1.4-8.9c14.3-20.2,62.2-56.7,152.6-95c47.1-20,212.1-61.7,240.1-68.7L-1414.9,639.3z M-1908.1,336.2c44.4-8.7,144.3-9.3,157.6-9.4
	l328.4,291.6c-35.7,9-191.5,48.5-238.2,68.3c-87.6,37.2-136.5,73.2-153.7,94.8l-264.7-344.8
	C-2049.4,387.4-1944.8,343.4-1908.1,336.2z M-1977.2,791.1c-52.9,6.8-266.4,71.7-307.4,84.3l2.7-11c20-8.6,205.1-87.1,306.6-99.1
	c101.2-11.9,150.5,20.1,157.9,25.4l0.8,4.8C-1830.9,791.1-1881.5,778.8-1977.2,791.1z M-1824.1,801.5c-6.1,2.6-11.4,6.4-15.7,11.1
	c-8.8-1.5-42.3-4.7-134.6,9.3c-49,7.4-274.1,60.2-314.1,69.6l1.8-7.3c24.6-7.5,256.5-78.4,310.5-85.3
	C-1892,788-1842.7,796.7-1824.1,801.5z M-2221.5,404.8c61.9-10.4,116.8,21.2,132.7,31.4l260.3,339.1
	c-23.1-11.3-70.6-26.7-147.7-17.6c-100.1,11.8-279.5,87.1-307,98.9L-2441.5,483C-2421.9,473.1-2313.5,420.2-2221.5,404.8z
	 M-2447.2,489.4l157.9,372.6l-9.7,40.2l-159.8-394.8L-2447.2,489.4z M-2318.4,910.1l-153.1-378.6c-1.2-2.8-0.2-5.9,2.4-7.6l6.9-4.4
	l157.8,389.7C-2308.9,909.6-2313.6,909.8-2318.4,910.1z M-1851.9,859l-451.7,78.4c-2.2,0.4-4.4-0.9-5.2-3.4l-6.6-16.3
	c5.8-0.3,11.4-0.7,16.7-1c0,0,0,0,0.1,0c0.1,0,0.2,0,0.3,0l446.4-78.3C-1852.9,844.7-1852.9,851.6-1851.9,859z M-1849.8,830
	l-442.6,77.7l1.9-7.8c26.1-6.2,266.8-62.8,317.3-70.4c80.7-12.2,115.7-11.1,128.1-9.8C-1847,822.9-1848.6,826.3-1849.8,830z
	 M-1812.1,805.9c14.7-2.7,39.8,2.6,49.9,28c-0.3,10.6-8.1,21.4-20.5,28.3c-18.4,10.3-41.1,9.4-61.3-2.2
	C-1847.9,837.4-1839.7,811-1812.1,805.9z"/>
<path d="M-658.1,905l22.2-8.8c1.7,0.7,3.6,1,5.6,1c4.5,0,9.4-1.3,12.4-2.5c6.5-2.6,10.2-6.3,10.2-10.5l0-21.1l26.6,8.7
	c0.6,0.2,1.4,0.3,2.3,0.3c10.8,0,43-12.3,52.4-18.8c2.3-1.6,5-3.9,5.1-7l-0.4-501.6c0.1-6.3-5.3-12.7-11.3-13.5l-74.5-15.2l0-51.2
	c0.1-6.3-4.5-11.7-10.7-12.5l-367-51.7c-1.9-0.3-3.8-0.1-5.6,0.5l-33.8,11.1c-5.3,1.7-8.7,6.6-8.6,12v120.4l-48-10
	c-1.9-0.3-3.8-0.1-5.6,0.5c-0.1,0-0.3,0.1-0.4,0.2l-27.6,12.7c-5.1,1.8-8.5,6.6-8.3,12.1l12.8,477.9c-42.9,12.9-89.7,24-139.9,33.3
	v7.8c50.2-9.3,97.2-20.5,140.3-33.3c0.8,4.3,3.8,7.9,7.7,9.3l270.9,125.3c1.4,0.5,2.8,0.7,4.2,0.7c2.6,0,5.1-0.8,7.3-2.3
	c3.3-2.4,5.3-6.3,5.2-10.4l0-2.3c0-0.6,0.1-1.1,0.3-1.6l0,0c0.5-1.4,1.5-2.5,3-2.9c0.1,0,0.3-0.1,0.4-0.2l39.6-18.7
	c1.2-0.3,2.5-0.2,3.6,0.4c5,2.8,11.8,0.9,16.2-1.6c4.9-2.9,7.8-6.9,7.8-11l0.1-6.2l31.7,9.8c1.4,0.5,2.8,0.7,4.2,0.7
	c2.6,0,5.1-0.8,7.3-2.3c3.3-2.4,5.3-6.3,5.2-10.3c0-0.2,0-1.1,0-2.5l17.9-7.1c90.7,0.6,175.7,0.7,257.1,0.7c18.7,0,420.1,0,438.5,0
	v-7.7C-74.4,905.7-554,905.6-658.1,905z M-532.1,339.8c1.5,1.2,2.8,3.1,2.8,4.9l0.4,500.9c-4.3,5.2-36.4,17-46.9,18.7
	c0.5-100.4,0.3-175.9,0-248.9c-0.2-73-0.5-148.5,0-249.1C-550.2,362.6-536.7,346.5-532.1,339.8z M-607.4,323.8l67.3,13.8
	c-5,6.5-16.7,18.2-37,21.1c-0.4-0.3-0.9-0.6-1.5-0.7l-28.8-6L-607.4,323.8z M-607.4,359.9l23.9,5c-0.5,101.3-0.3,177.2,0,250.6
	c0.2,72.6,0.5,147.7,0,247.4l-24.1-7.9L-607.4,359.9z M-821.8,962.2c-0.4,1.3-0.6,2.6-0.6,4l0,2.3c0,1.6-0.7,3-2,3.9
	c-1.3,0.9-2.9,1.1-4.1,0.7L-1099.3,848c-1.9-0.7-3.1-2.4-3.1-4.4l0,0c105.9-32.4,187.6-75.1,236.4-126.1
	c20.7-21.7,35.3-44.5,43.6-68.4c0.1,18.4,0.2,36.3,0.3,54C-821.7,778.5-821.3,856.5-821.8,962.2z M-773.1,682.6
	c-0.7,74.9-1.4,152.3-1.9,253.3l-39,18.4c0.5-101.7,0-177.7-0.4-251.2c-0.2-28.6-0.3-57.6-0.4-88.3c0.7-7,0.9-14.1,0.6-21.2
	c0-0.7-0.3-1.3-0.7-1.9c-0.1-44.1-0.1-92.2,0.1-148.2c0-1.7-1.1-3.3-2.8-3.7l-266.3-75.3l11.7-6.2l301,71.4
	C-771.6,530.5-772.4,607.8-773.1,682.6z M-746.4,416.1l-5,514.3c0,1-1.3,2.8-4,4.4c-3.4,2-7.1,2.4-8.5,1.6c-1-0.6-2.2-0.9-3.3-1.2
	c0.5-100.5,1.2-177.8,1.9-252.5c0.7-75.6,1.4-153.8,2-256.1c0-1.8-1.2-3.4-3-3.8l-305.5-72.4c-0.9-0.2-1.9-0.1-2.7,0.3l-21.5,11.4
	c-1.4,0.7-2.2,2.3-2,3.8c0.2,1.6,1.3,2.9,2.8,3.3l272.7,77.1c-0.3,64.4-0.2,118.5-0.1,168c-3.5,34.5-19.9,67.3-49,97.8
	c-47.6,49.8-127.5,91.6-231,123.5l-12.8-475.8c0-2.1,1.3-4,3.3-4.6c0.1,0,0.3-0.1,0.4-0.2l27.6-12.7c0.6-0.2,1.3-0.2,1.7-0.2
	l331.9,69.1C-748.1,411.7-746.4,413.7-746.4,416.1L-746.4,416.1z M-705,926.2c-1.3,0.9-2.9,1.1-4.5,0.6l-34.1-10.6l4.9-500
	c0.1-6.3-4.5-11.7-10.5-12.5l-276.2-57.5c0,0,0-0.1,0-0.1V224.2c0-2.1,1.3-4,3.3-4.6l33.8-11.1c0.7-0.2,1.4-0.3,2.1-0.2l367,51.7
	c2.4,0.3,4.1,2.4,4.1,4.8l-0.3,619.2c-0.3,0.8-3,3-8.1,4.5c-3.7,1.1-6.5,1.2-8.3,1c-0.2-0.3-0.4-0.5-0.6-0.7
	c-0.3-22.6,0.8-190.1,1.7-352.4c0.6-96.4,1.2-193.7,1.5-265.3c0-0.2-0.1-0.3-0.1-0.5c0-0.3-0.1-0.5-0.1-0.7
	c-0.1-0.2-0.2-0.5-0.3-0.7c-0.1-0.2-0.2-0.4-0.4-0.6c-0.2-0.2-0.4-0.3-0.5-0.5c-0.2-0.2-0.4-0.3-0.6-0.4c-0.2-0.1-0.5-0.2-0.7-0.3
	c-0.2,0-0.3-0.1-0.5-0.2l-346.7-50.1c-0.1,0-0.1,0-0.2,0c-0.3,0-0.5,0-0.8,0c-0.3,0-0.5,0-0.7,0.1c-0.1,0-0.1,0-0.2,0l-23.6,9.1
	c-0.1,0-0.2,0.1-0.3,0.2c-0.3,0.1-0.5,0.3-0.7,0.5c-0.2,0.1-0.3,0.3-0.4,0.5c-0.2,0.2-0.3,0.4-0.5,0.7c-0.1,0.2-0.2,0.4-0.3,0.7
	c0,0.1-0.1,0.3-0.2,0.4c0,0.1,0,0.2,0,0.3c0,0.3,0,0.5,0,0.8c0,0.3,0.1,0.5,0.1,0.8c0,0.1,0,0.2,0.1,0.3c0.1,0.2,0.2,0.3,0.3,0.5
	c0.1,0.1,0.1,0.3,0.2,0.4c0.3,0.3,0.5,0.7,0.9,0.9c0,0,0.1,0,0.1,0.1c0.4,0.2,0.8,0.4,1.2,0.5c0.1,0,0.1,0.1,0.2,0.1l300.8,59.2
	c-0.9,197.6,0,574.9,0.2,624c0,0,0,0,0,0c0,3.2,0,5,0,5.3C-703,923.9-703.7,925.3-705,926.2z M-695.3,911.4
	c-0.2-67-1.1-429.7-0.2-620.6c0-1-0.4-1.9-1-2.6c-0.5-1.1-1.4-2.1-2.8-2.3l-290.2-57.1l10.2-3.9l342.3,49.4
	c-0.4,71.3-0.9,167-1.5,261.9c-0.5,89.6-1.1,178.3-1.4,244.7c-0.4,75.7-0.5,100.2-0.1,108.6L-695.3,911.4z"/>
</svg>
