<?xml version="1.0" encoding="utf-8"?>
<!-- Generator: Adobe Illustrator 28.1.0, SVG Export Plug-In . SVG Version: 6.00 Build 0)  -->
<svg version="1.1" id="_x3C_Layer_x3E_" xmlns="http://www.w3.org/2000/svg" xmlns:xlink="http://www.w3.org/1999/xlink" x="0px"
	 y="0px" viewBox="0 0 1353 1268.9" style="enable-background:new 0 0 1353 1268.9;" xml:space="preserve">
<style type="text/css">
	.st0{fill:none;}
</style>
<path class="st0" d="M2415.4,697.9l586.4,81.7l211.6-106.4c0.5-0.9,1.7-4.3,1.4-14.3l-212.6,106.4c-0.5,0.3-1.1,0.4-1.7,0.4
	c-0.2,0-0.4,0-0.5,0c0,0-286.8-39.9-467.6-65l-30.1,1.4c-0.2,0-0.5,0-0.7,0c-4.3,0-8.3-1.5-11.6-4.2l-1.9-1.5
	c-10.9-1.5-26.4-3.9-41.4-6.3c-12.1-1.9-23.6-3.7-31.1-4.8L2415.4,697.9z"/>
<path class="st0" d="M2019.7,615.4c-0.2-73.4-0.5-149.3,0-250.6l-23.9-5l-0.3,495l24.1,7.9C2020.1,763.1,2019.9,688,2019.7,615.4z"
	/>
<path class="st0" d="M2027.4,615.4c0.2,73,0.5,148.4,0,248.9c10.5-1.7,42.5-13.5,46.9-18.7l-0.4-500.9c0-1.7-1.2-3.7-2.8-4.9
	c-4.6,6.8-18.1,22.8-43.7,26.5C2026.9,466.8,2027.2,542.3,2027.4,615.4z"/>
<path class="st0" d="M2026.1,358.7c20.4-2.9,32-14.5,37-21.1l-67.3-13.8l0,28.1l28.8,6C2025.2,358.1,2025.7,358.3,2026.1,358.7z"/>
<path class="st0" d="M3156.8,670.7l-154.9,72c-0.5,0.2-1.1,0.4-1.6,0.4c-0.2,0-0.3,0-0.5,0l-350.7-48l-75,3.6
	c172.8,24,407,56.6,425.7,59.2l214.5-107.3c-0.2-1.9-0.4-4-0.7-6.2l-40.6,18.9c-3.2,4.3-8.3,7.2-14.1,7.4L3156.8,670.7z"/>
<path class="st0" d="M3094.9,763.4c15.3-2.5,28.8-4.6,39.8-6.4l-25.2-1.1L3094.9,763.4z"/>
<path class="st0" d="M865.1,862.2c12.4-6.9,20.2-17.7,20.5-28.3c-10.1-25.3-35.3-30.7-49.9-28c-27.6,5-35.8,31.5-31.9,54.1
	C824,871.6,846.7,872.5,865.1,862.2z"/>
<path class="st0" d="M1963.4,780.9c0.3-66.4,0.9-155.1,1.4-244.7c0.6-94.9,1.2-190.7,1.5-261.9L1624,224.9l-10.2,3.9l290.2,57.1
	c1.3,0.3,2.3,1.2,2.8,2.3c0.6,0.7,1,1.6,1,2.6c-0.9,190.9,0,553.6,0.2,620.6l55.4-21.9C1962.9,881.1,1963,856.7,1963.4,780.9z"/>
<path class="st0" d="M1900.2,917c-0.1-49.1-1.1-426.4-0.2-624l-300.8-59.2c-0.1,0-0.1,0-0.2-0.1c-0.4-0.1-0.8-0.3-1.2-0.5
	c0,0-0.1,0-0.1-0.1c-0.3-0.2-0.6-0.5-0.9-0.9c-0.1-0.1-0.2-0.3-0.2-0.4c-0.1-0.2-0.2-0.3-0.3-0.5c0-0.1,0-0.2-0.1-0.3
	c-0.1-0.3-0.1-0.5-0.1-0.8c0-0.3,0-0.5,0-0.8c0-0.1,0-0.2,0-0.3c0-0.1,0.1-0.3,0.2-0.4c0.1-0.2,0.2-0.5,0.3-0.7
	c0.1-0.2,0.3-0.4,0.5-0.7c0.1-0.2,0.3-0.3,0.4-0.5c0.2-0.2,0.5-0.3,0.7-0.5c0.1-0.1,0.2-0.2,0.3-0.2l23.6-9.1c0.1,0,0.1,0,0.2,0
	c0.2-0.1,0.5-0.1,0.7-0.1c0.3,0,0.5-0.1,0.8,0c0.1,0,0.1,0,0.2,0l346.7,50.1c0.2,0,0.3,0.1,0.5,0.2c0.3,0.1,0.5,0.1,0.7,0.3
	c0.2,0.1,0.4,0.3,0.6,0.4c0.2,0.2,0.4,0.3,0.5,0.5c0.2,0.2,0.3,0.4,0.4,0.6c0.1,0.2,0.2,0.4,0.3,0.7c0.1,0.2,0.1,0.5,0.1,0.7
	c0,0.2,0.1,0.3,0.1,0.5c-0.4,71.6-0.9,168.9-1.5,265.3c-1,162.4-2,329.9-1.7,352.4c0.2,0.2,0.5,0.4,0.6,0.7c1.7,0.2,4.6,0.1,8.3-1
	c5.1-1.5,7.8-3.7,8.1-4.5l0.3-619.2c0-2.4-1.7-4.5-4.1-4.8l-367-51.7c-0.7-0.1-1.4,0-2.1,0.2l-33.8,11.1c-2,0.7-3.3,2.5-3.3,4.6
	v121.9c0,0,0,0.1,0,0.1l276.2,57.5c6,0.8,10.6,6.2,10.5,12.5l-4.9,500l34.1,10.6c1.6,0.6,3.2,0.4,4.5-0.6c1.3-0.9,2-2.4,2-3.9
	C1900.2,922,1900.2,920.2,1900.2,917C1900.2,917,1900.2,917,1900.2,917z"/>
<path class="st0" d="M1852.7,411.4l-331.9-69.1c-0.4,0-1.1,0-1.7,0.2l-27.6,12.7c-0.1,0.1-0.3,0.1-0.4,0.2c-2,0.7-3.3,2.5-3.3,4.6
	l12.8,475.8c103.5-31.9,183.4-73.7,231-123.5c29.1-30.4,45.5-63.3,49-97.8c-0.2-49.5-0.2-103.6,0.1-168L1508,369.3
	c-1.5-0.4-2.6-1.7-2.8-3.3c-0.2-1.6,0.6-3.1,2-3.8l21.5-11.4c0.8-0.4,1.8-0.6,2.7-0.3l305.5,72.4c1.8,0.4,3,2,3,3.8
	c-0.5,102.3-1.2,180.5-2,256.1c-0.7,74.7-1.4,151.9-1.9,252.5c1.2,0.3,2.3,0.6,3.3,1.2c1.4,0.8,5.1,0.4,8.5-1.6c2.7-1.6,4-3.4,4-4.4
	l5-514.3v0C1856.8,413.7,1855.1,411.7,1852.7,411.4z"/>
<path class="st0" d="M1780.8,649.1c-8.3,23.9-22.9,46.7-43.6,68.4c-48.7,50.9-130.4,93.7-236.4,126.1l0,0c0,2,1.3,3.7,3.1,4.4
	l270.9,125.3c1.2,0.4,2.8,0.2,4.1-0.7c1.3-0.9,2-2.4,2-3.9l0-2.3c0-1.4,0.2-2.8,0.6-4c0.5-105.8,0.1-183.7-0.4-259.1
	C1780.9,685.4,1780.8,667.5,1780.8,649.1z"/>
<path class="st0" d="M987.3,686.8c46.8-19.8,202.5-59.3,238.2-68.3L897.2,326.8c-13.3,0-113.2,0.7-157.6,9.4
	c-36.7,7.2-141.4,51.2-170.6,100.5l264.7,344.8C850.9,760,899.7,723.9,987.3,686.8z"/>
<path class="st0" d="M837.8,788.9l1.4,8.9c2.6-0.2,5.4-0.2,8.2,0.1c11.9-17.7,37.6-39.5,139.5-77.8c17.6-6.6,217.1-71.4,245.9-80.7
	l-2.3-14.1c-28,7-193,48.7-240.1,68.7C900,732.2,852,768.7,837.8,788.9z"/>
<path class="st0" d="M830.2,790.7c-7.4-5.3-56.7-37.3-157.9-25.4c-101.6,11.9-286.7,90.5-306.6,99.1l-2.7,11
	c41-12.5,254.5-77.5,307.4-84.3c95.7-12.3,146.3,0,160.5,4.4L830.2,790.7z"/>
<path class="st0" d="M891.5,828.3l347.1-141.7c2.4-1,4-3.1,4.4-5.5l-5.3-16l-357,147.7C884.9,816.8,888.6,822,891.5,828.3z"/>
<path class="st0" d="M855.9,799.2c6.1,1.5,12.3,4,18.1,7.9l361.8-149.6l-1.7-10.4c-31.6,10.2-227.4,73.8-244.4,80.2
	C895.5,762.6,868.2,783,855.9,799.2z"/>
<path class="st0" d="M671.5,798.8c-53.9,6.9-285.9,77.8-310.5,85.3l-1.8,7.3c40-9.4,265.2-62.2,314.1-69.6
	c92.3-14,125.7-10.8,134.6-9.3c4.3-4.7,9.6-8.5,15.7-11.1C805,796.7,755.7,788,671.5,798.8z"/>
<path class="st0" d="M349.5,916.6c-0.1,0-0.2,0-0.3,0c0,0,0,0-0.1,0c-5.3,0.4-10.9,0.7-16.7,1l6.6,16.3c0.8,2.5,3,3.9,5.2,3.4
	L795.8,859c-1.1-7.3-1-14.3,0.1-20.7L349.5,916.6z"/>
<path class="st0" d="M185.4,519.6l-6.9,4.4c-2.5,1.6-3.5,4.8-2.4,7.6l153.1,378.6c4.8-0.3,9.4-0.5,13.9-0.8L185.4,519.6z"/>
<path class="st0" d="M671.5,757.7c77-9.1,124.5,6.3,147.7,17.6L558.8,436.2c-15.8-10.2-70.8-41.8-132.7-31.4
	c-92,15.5-200.4,68.4-220,78.2l158.3,373.6C392,844.8,571.4,769.4,671.5,757.7z"/>
<path class="st0" d="M674.5,829.5c-50.5,7.7-291.2,64.3-317.3,70.4l-1.9,7.8L797.9,830c1.2-3.7,2.8-7.2,4.7-10.4
	C790.2,818.4,755.2,817.3,674.5,829.5z"/>
<polygon class="st0" points="358.4,862 200.5,489.4 188.8,507.4 348.7,902.2 "/>
<path class="st0" d="M1519.3,364.4l266.3,75.3c1.7,0.5,2.8,2,2.8,3.7c-0.3,56-0.3,104.1-0.1,148.2c0.4,0.6,0.7,1.2,0.7,1.9
	c0.3,7.2,0.1,14.2-0.6,21.2c0.1,30.7,0.3,59.7,0.4,88.3c0.4,73.5,0.9,149.5,0.4,251.2l39-18.4c0.5-100.9,1.2-178.4,1.9-253.3
	c0.7-74.8,1.4-152.2,1.9-253l-301-71.4L1519.3,364.4z"/>
<path class="st0" d="M2439.7,657.3l-16-12.9l-24.8,8c3.9,0.5,7.9,0.9,12.2,1.4C2419.7,654.8,2429.2,655.9,2439.7,657.3z"/>
<path class="st0" d="M2633.5,789.6c62.8,5.7,127.7,11.6,197.2,18.8c5.6-1,52.5-9.1,82.6-14.2c-93.6-12.8-237.3-33.2-351.6-49.4
	L2422,761.8c-1.3,0.1-1.9,1.5-2.1,2c-0.7,1.8-0.3,3.5,0,3.8c2.1,0.5,12.3,2.4,16.2,3.1C2505.6,778,2570.6,783.9,2633.5,789.6z"/>
<path class="st0" d="M3011.7,797.3l213.8-109.6c4.8-2.5,7.7-7.5,7.4-12.9l-1.5-37.5c-0.2-4.4-3.5-8-7.9-8.5l-46.9-5.2l0.1,28.2
	c0,0.4-0.1,0.7-0.1,1l38.3-17.8c0.7-0.4,1.5-0.5,2.4-0.4c1.7,0.3,3,1.6,3.2,3.3l0.1,0.5c0.7,5.4,1.2,9.9,1.5,13.9c0,0,0,0.1,0,0.1
	c1.6,21.3-2,24.9-3.6,26.4c-0.3,0.3-0.6,0.5-1,0.7L3004.2,787c-0.5,0.3-1.1,0.4-1.7,0.4c-0.2,0-0.4,0-0.5,0l-589.9-82.2l-17.7,7.8
	c76.5,11,553.4,79.2,611,85.5C3007.6,798.7,3009.8,798.3,3011.7,797.3z"/>
<path class="st0" d="M2501.9,694.3l653.8-31.3c0,0,0.1,0,0.1,0l2.7-0.1c5.9-0.2,10.5-5,10.5-10.9l-0.4-77.1
	c-18.6,1.4-88.7,4.7-173.6,8.2c-0.1,0-0.1,0-0.2,0c-0.2,0-0.4-0.1-0.6-0.1l-66.5,17c-0.3,0.1-0.6,0.1-1,0.1c-0.2,0-0.3,0-0.5,0
	l-98-11.8c-127.4,4.2-261.4,6.9-317.1,7.1c1,9.2,1.5,18.6,1.5,28c0,0.1,0,0.1,0,0.2c0,19.4-2,38.8-6,57.4c0,0,0,0.1,0,0.1
	c0,0.1-0.1,0.3-0.2,0.4c-0.1,0.3-0.3,0.6-0.5,0.9c0,0.1,0,0.1-0.1,0.2c-0.1,0.1-0.1,0.1-0.2,0.2c-0.3,0.3-0.6,0.6-0.9,0.8
	c-0.1,0.1-0.2,0.2-0.4,0.2c-0.5,0.2-1,0.3-1.5,0.3h0h0c0,0,0,0,0,0c-0.3,0-0.5,0-0.8-0.1c-0.1,0-0.1-0.1-0.2-0.1
	c-0.3-0.1-0.6-0.2-0.9-0.4c-0.1-0.1-0.3-0.1-0.4-0.2c0,0-0.1,0-0.1-0.1c-18.4-14.6-37.4-29.1-55.7-43.2
	c-17.7-13.6-36-27.7-53.9-41.8l-8,3.7l111.8,90.2C2496.9,693.6,2499.4,694.4,2501.9,694.3z"/>
<path class="st0" d="M2449.7,633.6c16.7,12.8,33.9,26.1,50.8,39.4c1-5.1,1.8-10.3,2.5-15.6l-108.5-80.6l0.8,14.6
	C2413.4,605.7,2431.8,619.9,2449.7,633.6z"/>
<path class="st0" d="M2453.4,559.6c-20.1-13.4-39.2-26.2-62.2-42.6l1,18.1l112.9,81.1c-0.2-7.6-0.7-15.2-1.6-22.6
	C2484.8,580.6,2468.8,569.9,2453.4,559.6z"/>
<path class="st0" d="M2829,908.6c-0.7,1.3-2,2.1-3.4,2.1c-0.1,0-0.3,0-0.4,0c-2.6-0.3-255.7-28.1-390-44l-9.8,0.8
	c-2,0.9-2.7,3.6-2.5,5.9c0.2,2.1,1.2,4.7,3.5,5l401.5,45.4l121.1-31c-41.9-2.8-79.5-6.1-111.4-10
	C2835.9,892.3,2833,900.9,2829,908.6z"/>
<path class="st0" d="M3177.1,823.1l0.8-53.9c-0.2-5-3.7-9.2-8.5-10.5c-0.5,0.4-1,0.6-1.7,0.7c0,0-40.2,6.4-95.2,15.3l-57.3,29.4
	c-2.7,1.4-5.6,2.1-8.6,2.1c-0.7,0-1.4,0-2.1-0.1c-10.2-1.1-33.7-4.2-65.8-8.5c-7,1.2-80.8,13.7-103.7,17.8
	c4.5,22.5,5.7,42.4,3.7,59.6c37.6,4.6,83.2,8.3,134.4,11.5l193.5-49.5C3173,835.4,3177.4,829.5,3177.1,823.1z"/>
<path class="st0" d="M2831.7,847.5l-392.4-40.3l-0.1,23.1l392,43.8C2832.2,865.9,2832.3,857,2831.7,847.5z"/>
<path class="st0" d="M2632.8,797.3c-61.7-5.6-125.4-11.4-193.4-18.4l-0.1,20.6l391.8,40.2c-0.8-7.6-2-15.5-3.8-23.9
	C2758.9,808.7,2694.8,802.9,2632.8,797.3z"/>
<path class="st0" d="M2439.1,859.3c127.4,15.1,356.8,40.4,384.2,43.4c3-6.3,5.2-13.3,6.6-21l-390.8-43.6L2439.1,859.3z"/>
<path class="st0" d="M3029.7,573.8c72.7-3.1,123.4-5.6,138.1-6.7c-0.9-1.8-2.3-3.3-4.3-4.1l-36.1-14.2L3029.7,573.8z"/>
<path class="st0" d="M2928.7,477.3c86.6-15.7,239.8-41,305.4-51.8l-389.3-17.1c-1.9-0.1-3.7-0.1-5.6,0.1l-318.8,21.9
	c-1.1,0.1-1.7,1.5-1.9,2c-0.7,1.8-0.3,3.5,0,3.8c0.2,0,0.3,0.2,0.5,0.2c0.1,0,0.3-0.1,0.4,0c69.6,7.3,138.4,14,204.9,20.5
	C2790.7,463.4,2859.3,470.1,2928.7,477.3z"/>
<path class="st0" d="M2930.8,519.2l-394.4-40.5l0,22.1l394.1,43.7C2931.5,535.8,2931.4,527.3,2930.8,519.2z"/>
<path class="st0" d="M2536.4,527.7l386.9,43.6l0.2-0.5c2.8-6.1,4.6-12.4,5.8-18.7l-392.9-43.5L2536.4,527.7z"/>
<polygon class="st0" points="2691.4,693 2999.8,735.1 3136.4,671.7 "/>
<path class="st0" d="M2476.3,686.8l-25.1-20.3c-13.2-1.7-24.9-3.2-35.4-4.4l-0.1,15.2c7.6,1.1,19.6,3,32.2,5
	C2457.6,683.9,2467.6,685.5,2476.3,686.8z"/>
<path class="st0" d="M2521.6,540.2c0.1,1.6,1.2,3.4,3.6,3.7l401.5,48.4l338.8-86.7c6.2-1.6,10.6-7.4,10.4-13.9l0.8-53.9
	c-0.2-5-3.7-9.2-8.5-10.5c-0.5,0.4-1,0.6-1.6,0.7c-2.2,0.4-219.9,35.9-332.7,56.2c0.3,1.8,0.6,3.7,0.9,5.7c3.8,23,9,54.6-4.2,84
	l-1.4,3c-0.6,1.4-2,2.3-3.5,2.3c-0.1,0-0.3,0-0.4,0l-391.2-44.1l-9.8,0.8C2522.1,536.8,2521.5,538.7,2521.6,540.2z"/>
<path class="st0" d="M2505.2,625.8L2392.7,545l1.3,21.9l110,81.7C2504.7,641,2505.1,633.4,2505.2,625.8z"/>
<path class="st0" d="M2926.1,484.8c-68.8-7.2-136.7-13.8-202.5-20.3c-60.9-5.9-123.7-12.1-187.2-18.7l0,25l393.7,40.4
	c-0.8-7.2-1.9-14-2.9-20.1C2926.7,489,2926.4,486.9,2926.1,484.8z"/>
<path class="st0" d="M2389,506C2389,506,2389.1,506,2389,506c26.1,18.7,46.8,32.6,68.7,47.2c15.6,10.4,31.8,21.2,50.7,34.3
	c46.6,0,156.1-2.1,269.3-5.5l-253.4-30.5c-5.7-0.7-9.8-5-10.3-10.7c-0.5-5.6,2.8-10.6,8.2-12.3c0.3-0.1,0.6-0.1,0.9-0.2l5.7-0.5
	l0-33.9l-154.1,2.2L2389,506C2389,505.9,2389,506,2389,506z"/>
<path d="M3706,900.8c-217.2,0-501.3-1.6-707.2-12.9l170-43.5c9.7-2.5,16.5-11.6,16.2-21.4l0.8-53.9c-0.4-10-8.1-17.9-18.1-18.5
	l-44-1.9l105.6-54.1c7.4-3.9,12-11.8,11.6-20.1l-1.5-37.4c-0.3-8.3-6.5-14.9-14.7-15.8l-47.8-5.3l-0.2-45.3c0-6.5-4-12.3-10-14.7
	l-26.2-10.3l127.2-32.6c9.7-2.5,16.5-11.6,16.2-21.4l0.8-53.9c-0.4-10-8.1-17.9-18.1-18.5l-421.1-18.5c-2.2-0.1-4.3-0.1-6.4,0.1
	l-318.8,22c-5,0.4-8.8,4.7-9.4,10.6c-0.5,5.1,1.9,9.2,5.9,10.3c0.3,0.1,0.5,0,0.8,0.1c0.4,0.2,0.8,0.4,1.3,0.4c3.3,0.4,6.7,0.7,10,1
	l0,41.2l-154.2,2.2c-3.4,0-6.4,2.3-7.4,5.6c-1,3.3,0.3,6.8,3.1,8.7l12.9,8.6l4.6,79.7l-9.1,4.2c-2.1,0.3-3.8,1.7-4.6,3.7
	c-0.9,2.4-0.2,5,1.8,6.7l40.7,32.9l-29.6,9.5c-2.4,0.8-4,3.1-3.8,5.6c0.2,2.5,2,4.6,4.7,5.1c6.3,0.8,13,1.6,20.2,2.5l-0.3,37.5
	l-25.4,11.2c-2,0.7-3.4,2.6-3.3,4.8c0.1,2.4,1.9,4.3,4.1,4.5c1.9,0.3,64.3,9.2,149.1,21.3l-111.1,13.6c-5,0.4-8.8,4.7-9.4,10.6
	c-0.5,5.1,1.9,9.2,5.9,10.3c2.2,0.6,9.5,1.9,13.8,2.7l-0.2,81.4l-7.1,0.6c-0.3,0-0.6,0.1-0.9,0.2c-5.5,1.8-8.8,7.4-8.2,14
	c0.6,6.4,4.7,11.2,10.3,12l167.8,19c-58.9,0.1-116.5,0.2-172.8,0.3c-59.5,0.1-119.9,0.3-182,0.3v7.7c62.2-0.1,122.5-0.2,182.1-0.3
	c77.7-0.2,158-0.4,240.7-0.4l166.5,18.8c0.1,0,0.3,0,0.4,0c0.3,0,0.6,0,1-0.1l144.8-37.1c207.7,12.6,506,14.3,731.9,14.3
	c2.1,0,3.9-1.7,3.9-3.9C3709.8,902.6,3708.1,900.8,3706,900.8z M3134.8,756.9c-11.1,1.8-24.6,4-39.8,6.4l14.7-7.5L3134.8,756.9z
	 M3173,663.1l40.6-18.9c0.3,2.3,0.5,4.3,0.7,6.2l-214.5,107.3c-18.7-2.6-252.9-35.2-425.7-59.2l75-3.6l350.7,48c0.2,0,0.3,0,0.5,0
	c0.6,0,1.1-0.1,1.6-0.4l154.9-72l2.1-0.1C3164.8,670.3,3169.8,667.5,3173,663.1z M2446.7,690c15.1,2.4,30.6,4.9,41.4,6.3l1.9,1.5
	c3.2,2.7,7.3,4.2,11.6,4.2c0.2,0,0.5,0,0.7,0l30.1-1.4c180.8,25.1,467.6,65,467.6,65c0.2,0,0.4,0,0.5,0c0.6,0,1.2-0.1,1.7-0.4
	l212.6-106.4c0.3,10-0.9,13.4-1.4,14.3l-211.6,106.4l-586.4-81.7l0.1-12.7C2423.1,686.2,2434.6,688.1,2446.7,690z M2415.6,677.4
	l0.1-15.2c10.6,1.3,22.2,2.7,35.4,4.4l25.1,20.3c-8.7-1.3-18.7-2.9-28.4-4.4C2435.2,680.3,2423.2,678.4,2415.6,677.4z M2691.4,693
	l445-21.3l-136.6,63.5L2691.4,693z M3163.5,563.1c2,0.8,3.4,2.3,4.3,4.1c-14.7,1.1-65.4,3.6-138.1,6.7l97.7-25L3163.5,563.1z
	 M2519.4,436.4c-0.1,0-0.3,0-0.4,0c-0.2-0.1-0.3-0.2-0.5-0.2c-0.3-0.3-0.7-2,0-3.8c0.2-0.4,0.8-1.9,1.9-2l318.8-21.9
	c1.8-0.1,3.7-0.2,5.6-0.1l389.3,17.1c-65.5,10.8-218.8,36.2-305.4,51.8c-69.4-7.3-138-14-204.4-20.5
	C2657.8,450.4,2589,443.6,2519.4,436.4z M2536.4,500.7l0-22.1l394.4,40.5c0.6,8.1,0.7,16.7-0.3,25.2L2536.4,500.7z M2929.3,552
	c-1.2,6.3-3.1,12.6-5.8,18.7l-0.2,0.5l-386.9-43.6l0-19.2L2929.3,552z M2536.4,470.9l0-25c63.5,6.6,126.3,12.7,187.2,18.7
	c65.7,6.4,133.7,13.1,202.5,20.3c0.3,2,0.7,4.1,1,6.4c1,6.2,2.1,13,2.9,20.1L2536.4,470.9z M2533.9,535.2l391.2,44.1
	c0.1,0,0.3,0,0.4,0c1.5,0,2.9-0.9,3.5-2.3l1.4-3c13.2-29.4,8-61,4.2-84c-0.3-2-0.6-3.8-0.9-5.7c112.7-20.3,330.5-55.9,332.7-56.2
	c0.6-0.1,1.2-0.4,1.6-0.7c4.8,1.3,8.3,5.5,8.5,10.5l-0.8,53.9c0.2,6.4-4.1,12.3-10.4,13.9l-338.8,86.7l-401.5-48.4
	c-2.4-0.3-3.4-2.1-3.6-3.7c-0.1-1.5,0.5-3.3,2.5-4.2L2533.9,535.2z M2374.5,496.2l154.1-2.2l0,33.9l-5.7,0.5c-0.3,0-0.6,0.1-0.9,0.2
	c-5.4,1.7-8.7,6.7-8.2,12.3c0.5,5.6,4.6,9.9,10.3,10.7l253.4,30.5c-113.2,3.4-222.7,5.4-269.3,5.5c-18.9-13.1-35-23.9-50.7-34.3
	c-21.9-14.6-42.6-28.4-68.6-47.2c0,0,0,0-0.1,0c0,0,0,0,0,0L2374.5,496.2z M2394,566.9l-1.3-21.9l112.4,80.8
	c-0.1,7.6-0.5,15.2-1.2,22.8L2394,566.9z M2503,657.5c-0.7,5.3-1.5,10.4-2.5,15.6c-16.9-13.3-34.1-26.5-50.8-39.4
	c-17.9-13.7-36.4-27.9-54.3-42.2l-0.8-14.6L2503,657.5z M2392.2,535.1l-1-18.1c23.1,16.4,42.2,29.2,62.2,42.6
	c15.5,10.3,31.5,21,50.1,33.9c0.9,7.4,1.4,15,1.6,22.6L2392.2,535.1z M2383.1,601.7l8-3.7c17.8,14.1,36.2,28.2,53.9,41.8
	c18.3,14.1,37.3,28.7,55.7,43.2c0,0,0.1,0,0.1,0.1c0.1,0.1,0.3,0.2,0.4,0.2c0.3,0.2,0.6,0.3,0.9,0.4c0.1,0,0.1,0.1,0.2,0.1
	c0.3,0.1,0.5,0.1,0.8,0.1c0,0,0,0,0,0h0h0c0.5,0,1-0.1,1.5-0.3c0.1-0.1,0.2-0.1,0.4-0.2c0.4-0.2,0.7-0.5,0.9-0.8
	c0.1-0.1,0.2-0.1,0.2-0.2c0,0,0-0.1,0.1-0.2c0.2-0.3,0.3-0.6,0.5-0.9c0.1-0.1,0.1-0.3,0.2-0.4c0,0,0-0.1,0-0.1
	c4.1-18.6,6.1-38.1,6-57.4c0-0.1,0-0.1,0-0.2c0-9.4-0.5-18.7-1.5-28c55.6-0.1,189.7-2.8,317.1-7.1l98,11.8c0.2,0,0.3,0,0.5,0
	c0.3,0,0.6,0,1-0.1l66.5-17c0.2,0,0.4,0.1,0.6,0.1c0.1,0,0.1,0,0.2,0c84.9-3.5,154.9-6.8,173.6-8.2l0.4,77.1
	c0,5.9-4.6,10.7-10.5,10.9l-2.7,0.1c0,0-0.1,0-0.1,0l-653.8,31.3c-2.5,0-5-0.8-7-2.5L2383.1,601.7z M2398.9,652.3l24.8-8l16,12.9
	c-10.5-1.3-20-2.4-28.6-3.5C2406.8,653.3,2402.7,652.8,2398.9,652.3z M2394.4,713l17.7-7.8l589.9,82.2c0.2,0,0.4,0,0.5,0
	c0.6,0,1.2-0.1,1.7-0.4l213.5-107.4c0.4-0.2,0.7-0.4,1-0.7c1.5-1.5,5.2-5.1,3.6-26.4c0,0,0-0.1,0-0.1c-0.3-4-0.8-8.6-1.5-13.9
	l-0.1-0.5c-0.2-1.7-1.5-3-3.2-3.3c-0.8-0.1-1.7,0-2.4,0.4l-38.3,17.8c0-0.3,0.1-0.7,0.1-1l-0.1-28.2l46.9,5.2c4.4,0.5,7.7,4,7.9,8.5
	l1.5,37.5c0.3,5.4-2.7,10.4-7.4,12.9l-213.8,109.6c-1.9,1-4.1,1.4-6.3,1.2C2947.8,792.2,2471,724,2394.4,713z M2419.9,767.6
	c-0.3-0.3-0.7-2,0-3.8c0.2-0.4,0.8-1.9,2.1-2l139.7-17.1c114.2,16.3,258,36.6,351.6,49.4c-30.2,5.2-77,13.3-82.6,14.2
	c-69.4-7.3-134.4-13.1-197.2-18.8c-62.9-5.7-127.9-11.6-197.4-18.8C2432.2,770,2422,768.1,2419.9,767.6z M2439.2,830.3l0.1-23.1
	l392.4,40.3c0.6,9.5,0.5,18.4-0.5,26.6L2439.2,830.3z M2829.9,881.7c-1.5,7.6-3.6,14.7-6.6,21c-27.4-3-256.8-28.3-384.2-43.4
	l0.1-21.2L2829.9,881.7z M2439.3,799.5l0.1-20.6c68,7.1,131.8,12.9,193.4,18.4c62,5.6,126.1,11.4,194.6,18.6
	c1.7,8.3,3,16.3,3.8,23.9L2439.3,799.5z M2828,923.7l-401.5-45.4c-2.3-0.3-3.3-2.9-3.5-5c-0.2-2.3,0.5-5,2.5-5.9l9.8-0.8
	c134.2,15.9,387.4,43.8,390,44c0.1,0,0.3,0,0.4,0c1.4,0,2.8-0.8,3.4-2.1c4-7.7,6.9-16.4,8.7-25.9c31.9,3.9,69.5,7.2,111.4,10
	L2828,923.7z M2973.3,886.5c-51.2-3.1-96.8-6.9-134.4-11.5c2.1-17.2,0.8-37.2-3.7-59.6c22.9-4,96.7-16.6,103.7-17.8
	c32,4.3,55.5,7.4,65.8,8.5c0.7,0.1,1.4,0.1,2.1,0.1c3,0,5.9-0.7,8.6-2.1l57.3-29.4c55-8.9,95.2-15.3,95.2-15.3
	c0.6-0.1,1.2-0.4,1.7-0.7c4.8,1.3,8.4,5.5,8.5,10.5l-0.8,53.9c0.2,6.4-4.1,12.3-10.4,13.9L2973.3,886.5z"/>
<path d="M955,904.9c-60.2,0-129.5-4.2-147.7-34.4c20.7,9.2,43.1,8.8,61.6-1.5c14.1-7.9,23.2-20.4,24.4-33.1l348.4-142.2
	c5.3-2.2,8.9-7.1,9.3-12.8c0-0.5,0-1-0.2-1.5l-6.8-20.5l-6.4-39.2c0-0.1,0-0.1-0.1-0.2c0,0,0-0.1,0-0.1c0-0.1-0.1-0.2-0.2-0.3
	c-0.1-0.3-0.2-0.6-0.4-0.9c-0.1-0.1-0.2-0.3-0.3-0.4c-0.1-0.1-0.2-0.3-0.3-0.4l-335-297.5c-0.7-0.6-1.6-1-2.6-1
	c-4.6,0-112.4,0.1-160.5,9.5c-30.9,6-139.7,47.7-174.3,101.6c-0.1,0-0.1-0.1-0.2-0.1c-0.2-0.2-0.5-0.3-0.7-0.5
	c-16.7-10.8-73.7-43.3-138.1-32.5c-102.3,17.2-224.3,80-225.5,80.6c-0.3,0.2-0.6,0.4-0.9,0.7c-0.1,0.1-0.1,0.2-0.2,0.2
	c-0.1,0.1-0.3,0.3-0.4,0.4l-16.7,25.8c-0.1,0.1-0.1,0.3-0.2,0.5c0,0.1-0.1,0.1-0.1,0.2c-0.2,0.4-0.2,0.8-0.3,1.3c0,0.1,0,0.2,0,0.3
	c0,0.5,0.1,0.9,0.3,1.4l1.6,3.8c0,0,0,0,0,0l-8,5.1c-5.7,3.6-8,10.8-5.4,17l152.1,376c-158.6,7.3-476.2-2.9-479.6-3c0,0-0.1,0-0.1,0
	c-2.1,0-3.8,1.6-3.9,3.7c-0.1,2.1,1.6,3.9,3.7,4c2.5,0.1,175.4,5.6,329.9,5.6c56.6,0,110.7-0.8,153-2.8l7.4,18.4
	c1.5,5.3,6.3,8.7,11.6,8.7c0.8,0,1.5-0.1,2.3-0.2L797,866.6c13.2,40.5,87,46,158,46c145.8,0,280.9-11.8,398.1-33.5v-7.8
	C1236.1,893.1,1100.9,904.9,955,904.9z M1237.7,665l5.3,16c-0.4,2.5-2.1,4.6-4.4,5.5L891.5,828.3c-2.9-6.3-6.6-11.4-10.8-15.6
	L1237.7,665z M1235.8,657.5L874,807.1c-5.7-3.9-12-6.5-18.1-7.9c12.2-16.2,39.6-36.6,133.7-71.9c17-6.4,212.9-70,244.4-80.2
	L1235.8,657.5z M1232.8,639.3c-28.7,9.3-228.3,74.1-245.9,80.7c-102,38.3-127.6,60.1-139.5,77.8c-2.9-0.2-5.6-0.3-8.2-0.1l-1.4-8.9
	c14.3-20.2,62.2-56.7,152.6-95c47.1-20,212.1-61.7,240.1-68.7L1232.8,639.3z M739.6,336.2c44.4-8.7,144.3-9.3,157.6-9.4l328.4,291.6
	c-35.7,9-191.5,48.5-238.2,68.3c-87.6,37.2-136.5,73.2-153.7,94.8L569,436.7C598.3,387.4,702.9,343.4,739.6,336.2z M670.5,791.1
	c-52.9,6.8-266.4,71.7-307.4,84.3l2.7-11c20-8.6,205.1-87.1,306.6-99.1c101.2-11.9,150.5,20.1,157.9,25.4l0.8,4.8
	C816.8,791.1,766.2,778.8,670.5,791.1z M823.6,801.5c-6.1,2.6-11.4,6.4-15.7,11.1c-8.8-1.5-42.3-4.7-134.6,9.3
	c-49,7.4-274.1,60.2-314.1,69.6l1.8-7.3c24.6-7.5,256.5-78.4,310.5-85.3C755.7,788,805,796.7,823.6,801.5z M426.2,404.8
	c61.9-10.4,116.8,21.2,132.7,31.4l260.3,339.1c-23.1-11.3-70.6-26.7-147.7-17.6c-100.1,11.8-279.5,87.1-307,98.9L206.2,483
	C225.8,473.1,334.2,420.2,426.2,404.8z M200.5,489.4L358.4,862l-9.7,40.2L188.8,507.4L200.5,489.4z M329.3,910.1L176.2,531.5
	c-1.2-2.8-0.2-5.9,2.4-7.6l6.9-4.4l157.8,389.7C338.8,909.6,334.1,909.8,329.3,910.1z M795.8,859l-451.7,78.4
	c-2.2,0.4-4.4-0.9-5.2-3.4l-6.6-16.3c5.8-0.3,11.4-0.7,16.7-1c0,0,0,0,0.1,0c0.1,0,0.2,0,0.3,0l446.4-78.3
	C794.8,844.7,794.7,851.6,795.8,859z M797.9,830l-442.6,77.7l1.9-7.8c26.1-6.2,266.8-62.8,317.3-70.4
	c80.7-12.2,115.7-11.1,128.1-9.8C800.7,822.9,799.1,826.3,797.9,830z M835.6,805.9c14.7-2.7,39.8,2.6,49.9,28
	c-0.3,10.6-8.1,21.4-20.5,28.3c-18.4,10.3-41.1,9.4-61.3-2.2C799.8,837.4,808,811,835.6,805.9z"/>
<path d="M1945.1,905l22.2-8.8c1.7,0.7,3.6,1,5.6,1c4.5,0,9.4-1.3,12.4-2.5c6.5-2.6,10.2-6.3,10.2-10.5l0-21.1l26.6,8.7
	c0.6,0.2,1.4,0.3,2.3,0.3c10.8,0,43-12.3,52.4-18.8c2.3-1.6,5-3.9,5.1-7l-0.4-501.6c0.1-6.3-5.3-12.7-11.3-13.5l-74.5-15.2l0-51.2
	c0.1-6.3-4.5-11.7-10.7-12.5l-367-51.7c-1.9-0.3-3.8-0.1-5.6,0.5l-33.8,11.1c-5.3,1.7-8.7,6.6-8.6,12v120.4l-48-10
	c-1.9-0.3-3.8-0.1-5.6,0.5c-0.1,0-0.3,0.1-0.4,0.2l-27.6,12.7c-5.1,1.8-8.5,6.6-8.3,12.1l12.8,477.9c-42.9,12.9-89.7,24-139.9,33.3
	v7.8c50.2-9.3,97.2-20.5,140.3-33.3c0.8,4.3,3.8,7.9,7.7,9.3l270.9,125.3c1.4,0.5,2.8,0.7,4.2,0.7c2.6,0,5.1-0.8,7.3-2.3
	c3.3-2.4,5.3-6.3,5.2-10.4l0-2.3c0-0.6,0.1-1.1,0.3-1.6l0,0c0.5-1.4,1.5-2.5,3-2.9c0.1,0,0.3-0.1,0.4-0.2l39.6-18.7
	c1.2-0.3,2.5-0.2,3.6,0.4c5,2.8,11.8,0.9,16.2-1.6c4.9-2.9,7.8-6.9,7.8-11l0.1-6.2l31.7,9.8c1.4,0.5,2.8,0.7,4.2,0.7
	c2.6,0,5.1-0.8,7.3-2.3c3.3-2.4,5.3-6.3,5.2-10.3c0-0.2,0-1.1,0-2.5l17.9-7.1c90.7,0.6,175.7,0.7,257.1,0.7c18.7,0,37.2,0,55.6,0
	v-7.7C2145.9,905.7,2049.2,905.6,1945.1,905z M2071.1,339.8c1.5,1.2,2.8,3.1,2.8,4.9l0.4,500.9c-4.3,5.2-36.4,17-46.9,18.7
	c0.5-100.4,0.3-175.9,0-248.9c-0.2-73-0.5-148.5,0-249.1C2053,362.6,2066.5,346.5,2071.1,339.8z M1995.8,323.8l67.3,13.8
	c-5,6.5-16.7,18.2-37,21.1c-0.4-0.3-0.9-0.6-1.5-0.7l-28.8-6L1995.8,323.8z M1995.8,359.9l23.9,5c-0.5,101.3-0.3,177.2,0,250.6
	c0.2,72.6,0.5,147.7,0,247.4l-24.1-7.9L1995.8,359.9z M1781.4,962.2c-0.4,1.3-0.6,2.6-0.6,4l0,2.3c0,1.6-0.7,3-2,3.9
	c-1.3,0.9-2.9,1.1-4.1,0.7L1503.9,848c-1.9-0.7-3.1-2.4-3.1-4.4l0,0c105.9-32.4,187.6-75.1,236.4-126.1
	c20.7-21.7,35.3-44.5,43.6-68.4c0.1,18.4,0.2,36.3,0.3,54C1781.5,778.5,1781.9,856.5,1781.4,962.2z M1830.1,682.6
	c-0.7,74.9-1.4,152.3-1.9,253.3l-39,18.4c0.5-101.7,0-177.7-0.4-251.2c-0.2-28.6-0.3-57.6-0.4-88.3c0.7-7,0.9-14.1,0.6-21.2
	c0-0.7-0.3-1.3-0.7-1.9c-0.1-44.1-0.1-92.2,0.1-148.2c0-1.7-1.1-3.3-2.8-3.7l-266.3-75.3l11.7-6.2l301,71.4
	C1831.5,530.5,1830.8,607.8,1830.1,682.6z M1856.8,416.1l-5,514.3c0,1-1.3,2.8-4,4.4c-3.4,2-7.1,2.4-8.5,1.6c-1-0.6-2.2-0.9-3.3-1.2
	c0.5-100.5,1.2-177.8,1.9-252.5c0.7-75.6,1.4-153.8,2-256.1c0-1.8-1.2-3.4-3-3.8l-305.5-72.4c-0.9-0.2-1.9-0.1-2.7,0.3l-21.5,11.4
	c-1.4,0.7-2.2,2.3-2,3.8c0.2,1.6,1.3,2.9,2.8,3.3l272.7,77.1c-0.3,64.4-0.2,118.5-0.1,168c-3.5,34.5-19.9,67.3-49,97.8
	c-47.6,49.8-127.5,91.6-231,123.5l-12.8-475.8c0-2.1,1.3-4,3.3-4.6c0.1,0,0.3-0.1,0.4-0.2l27.6-12.7c0.6-0.2,1.3-0.2,1.7-0.2
	l331.9,69.1C1855.1,411.7,1856.8,413.7,1856.8,416.1L1856.8,416.1z M1898.2,926.2c-1.3,0.9-2.9,1.1-4.5,0.6l-34.1-10.6l4.9-500
	c0.1-6.3-4.5-11.7-10.5-12.5l-276.2-57.5c0,0,0-0.1,0-0.1V224.2c0-2.1,1.3-4,3.3-4.6l33.8-11.1c0.7-0.2,1.4-0.3,2.1-0.2l367,51.7
	c2.4,0.3,4.1,2.4,4.1,4.8l-0.3,619.2c-0.3,0.8-3,3-8.1,4.5c-3.7,1.1-6.5,1.2-8.3,1c-0.2-0.3-0.4-0.5-0.6-0.7
	c-0.3-22.6,0.8-190.1,1.7-352.4c0.6-96.4,1.2-193.7,1.5-265.3c0-0.2-0.1-0.3-0.1-0.5c0-0.3-0.1-0.5-0.1-0.7
	c-0.1-0.2-0.2-0.5-0.3-0.7c-0.1-0.2-0.2-0.4-0.4-0.6c-0.2-0.2-0.4-0.3-0.5-0.5c-0.2-0.2-0.4-0.3-0.6-0.4c-0.2-0.1-0.5-0.2-0.7-0.3
	c-0.2,0-0.3-0.1-0.5-0.2l-346.7-50.1c-0.1,0-0.1,0-0.2,0c-0.3,0-0.5,0-0.8,0c-0.3,0-0.5,0-0.7,0.1c-0.1,0-0.1,0-0.2,0l-23.6,9.1
	c-0.1,0-0.2,0.1-0.3,0.2c-0.3,0.1-0.5,0.3-0.7,0.5c-0.2,0.1-0.3,0.3-0.4,0.5c-0.2,0.2-0.3,0.4-0.5,0.7c-0.1,0.2-0.2,0.4-0.3,0.7
	c0,0.1-0.1,0.3-0.2,0.4c0,0.1,0,0.2,0,0.3c0,0.3,0,0.5,0,0.8c0,0.3,0.1,0.5,0.1,0.8c0,0.1,0,0.2,0.1,0.3c0.1,0.2,0.2,0.3,0.3,0.5
	c0.1,0.1,0.1,0.3,0.2,0.4c0.3,0.3,0.5,0.7,0.9,0.9c0,0,0.1,0,0.1,0.1c0.4,0.2,0.8,0.4,1.2,0.5c0.1,0,0.1,0.1,0.2,0.1L1900,293
	c-0.9,197.6,0,574.9,0.2,624c0,0,0,0,0,0c0,3.2,0,5,0,5.3C1900.2,923.9,1899.5,925.3,1898.2,926.2z M1907.9,911.4
	c-0.2-67-1.1-429.7-0.2-620.6c0-1-0.4-1.9-1-2.6c-0.5-1.1-1.4-2.1-2.8-2.3l-290.2-57.1l10.2-3.9l342.3,49.4
	c-0.4,71.3-0.9,167-1.5,261.9c-0.5,89.6-1.1,178.3-1.4,244.7c-0.4,75.7-0.5,100.2-0.1,108.6L1907.9,911.4z"/>
</svg>
