<?xml version="1.0" encoding="utf-8"?>
<!-- Generator: Adobe Illustrator 28.1.0, SVG Export Plug-In . SVG Version: 6.00 Build 0)  -->
<svg version="1.1" id="_x3C_Layer_x3E_" xmlns="http://www.w3.org/2000/svg" xmlns:xlink="http://www.w3.org/1999/xlink" x="0px"
	 y="0px" viewBox="0 0 3470 1735" style="enable-background:new 0 0 3470 1735;" xml:space="preserve">
<style type="text/css">
	.st0{fill:none;stroke:#C3C3C3;stroke-width:6.94;stroke-miterlimit:10;}
</style>
<path class="st0" d="M884.3,936.7c-62.5-291.4,260.1-480.8,143.2-94.2c-59.1,195.5-437.6,110.2-329.4-194.1
	c64.8-182.2,341.5-146.8,411.7,22.5c158.3,307.7-358.6,690.7-517.5,369.4c-43.9-148.2,119.3-261.6,256.1-242.1
	c125.5,7.3,230.2,86.7,346.3,125.4c98,38.3,248.6-6.2,241.8-128.6c-33.2-215.4-612.8-175.7-480.7,174.5
	c109.6,315.4-260,415.3-371.9,127.4c-32.6-88.8-42.5-333,78.4-352.4c46.3-1.6,77.8,44.8,99.8,85.5c67.6,100.5,117.9,293.2,240.3,328
	c174.7,20.9,166.4-199.4,158-336.1c-14.4-250.7-63.7-679-309.4-284.2c-67.4,106.8,20.5,241.6,133.8,268.7
	c82.6,24.2,175.9,9.6,251.7,50.2c151,81.5,131.1,305.2-0.1,397.7c-552.1,300.7-776.4-379.7-111.1-632.8
	c119.3-50.9,107.5-152.8-15.5-188.5c-219.5-105.7-753.4,206.7-422,328.7c133.9,36.7,283.6,11,397.5-68.2
	c94.2-79.9,185.7-103.4,262.2,12.7c235,425.6-352,722.2-563.9,262.7c-57.3-104.5-107.5-73.3-196.1,2.9
	C261,1276.3,898.1,1251.5,995,916.8c42-154.7-18.5-433.1,182.2-469.3c143.8-10.9,189.4,138.8,92.4,233.8
	c-37.5,40.7-85.5,70.2-125.4,108.6c-178.4,151.3-89.5,539.7,118.3,507.9c176-27,220.8-257.9,121.6-328.2
	c-195.6-117.2-448.3,88.9-625.4-147.6c-368.4-582.6,527.4-640.7,96.6,420.4c-252.4,416-580.2-534-116.8-614.5
	c163-43.9,448.7,92.2,533.6,236.3c57.1,136.5-9.3,313.7-128.2,395.4c-512.5,263.9-536.5-784.6-83.8-809.4
	c167.1-23.2,424.6,191.8,300.3,360.4c-66.9,68.5-159.6-1.5-240.3-26.3C961,741,567.2,590.1,451.7,839.7
	c-43.2,93.3,4.3,190.3,73.8,241.4c95.2,77.4,190.5,154.8,285.7,232.2c36.3,29.5,74.5,60,120.2,70.1
	c332.4,16.7,220.7-413.9,293.6-617.1c31.4-92.2,167.9-126,233.5-38c174.1,264-198.1,439.3-361.9,221
	c-87.9-120.3-202.4-451.7-356.1-503.7C573,392.8,450.3,610.8,563.8,746c41,51.5,102.9,69.6,160.2,102
	c466.4,267.2,660.9,323,798.2,306.7c233.8-27.7,268.3-108.6,455.3-125.4c217.1-19.5,1056.3,95.2,1487,705.8"/>
</svg>
