<?xml version="1.0" encoding="utf-8"?>
<!-- Generator: Adobe Illustrator 28.1.0, SVG Export Plug-In . SVG Version: 6.00 Build 0)  -->
<svg version="1.1" id="_x3C_Layer_x3E_" xmlns="http://www.w3.org/2000/svg" xmlns:xlink="http://www.w3.org/1999/xlink" x="0px"
	 y="0px" viewBox="0 0 1594.4 1304.5" style="enable-background:new 0 0 1594.4 1304.5;" xml:space="preserve">
<style type="text/css">
	.st0{fill:none;stroke:#000000;stroke-width:6.94;stroke-miterlimit:10;}
	.st1{fill:none;stroke:#FFC900;stroke-width:5;stroke-miterlimit:10;}
</style>
<path class="st0" d="M2599.3,1654"/>
<g>
	<g>
		<path class="st1" d="M212.5,482.4v204.3v193.9V1060c0,35,28.4,63.5,63.5,63.5h373.3c35.1,0,63.5-28.4,63.5-63.5V686.7
			c0-35.1-28.4-63.6-63.5-63.6H391.7V380.4c0-67.3,54.8-122.1,122.1-122.1h199V181h-199C347.7,181,212.5,316.3,212.5,482.4z"/>
		<path class="st1" d="M1182.9,258.3h199V181h-199c-166.1,0-301.3,135.3-301.3,301.4v204.3v193.9V1060c0,35,28.4,63.5,63.5,63.5
			h373.3c35,0,63.5-28.4,63.5-63.5V686.7c0-35.1-28.4-63.6-63.5-63.6h-257.6V380.4C1060.8,313.1,1115.6,258.3,1182.9,258.3z"/>
	</g>
</g>
</svg>
