<?xml version="1.0" encoding="utf-8"?>
<!-- Generator: Adobe Illustrator 28.1.0, SVG Export Plug-In . SVG Version: 6.00 Build 0)  -->
<svg version="1.1" id="_x3C_Layer_x3E_" xmlns="http://www.w3.org/2000/svg" xmlns:xlink="http://www.w3.org/1999/xlink" x="0px"
	 y="0px" viewBox="0 0 1353 1268.9" style="enable-background:new 0 0 1353 1268.9;" xml:space="preserve">
<style type="text/css">
	.st0{fill:none;}
	.st1{fill:none;stroke:#4B4C4C;stroke-miterlimit:10;}
	.st2{fill:#4B4C4C;}
</style>
<path class="st0" d="M2415.4,697.9l586.4,81.7l211.6-106.4c0.5-0.9,1.7-4.3,1.4-14.3l-212.6,106.4c-0.5,0.3-1.1,0.4-1.7,0.4
	c-0.2,0-0.4,0-0.5,0c0,0-286.8-39.9-467.6-65l-30.1,1.4c-0.2,0-0.5,0-0.7,0c-4.3,0-8.3-1.5-11.6-4.2l-1.9-1.5
	c-10.9-1.5-26.4-3.9-41.4-6.3c-12.1-1.9-23.6-3.7-31.1-4.8L2415.4,697.9z"/>
<path class="st0" d="M3156.8,670.7l-154.9,72c-0.5,0.2-1.1,0.4-1.6,0.4c-0.2,0-0.3,0-0.5,0l-350.7-48l-75,3.6
	c172.8,24,407,56.6,425.7,59.2l214.5-107.3c-0.2-1.9-0.4-4-0.7-6.2l-40.6,18.9c-3.2,4.3-8.3,7.2-14.1,7.4L3156.8,670.7z"/>
<path class="st0" d="M3094.9,763.4c15.3-2.5,28.8-4.6,39.8-6.4l-25.2-1.1L3094.9,763.4z"/>
<path class="st1" d="M-366.8-664c46.8-19.8,202.5-59.3,238.2-68.3L-457-1023.9c-13.3,0-113.2,0.7-157.6,9.4
	c-36.7,7.2-141.4,51.2-170.6,100.5l264.7,344.8C-503.3-590.8-454.5-626.9-366.8-664z"/>
<path class="st1" d="M-516.4-561.9l1.4,8.9c2.6-0.2,5.4-0.2,8.2,0.1c11.9-17.7,37.6-39.5,139.5-77.8c17.6-6.6,217.1-71.4,245.9-80.7
	l-2.3-14.1c-28,7-193,48.7-240.1,68.7C-454.2-618.6-502.2-582.1-516.4-561.9z"/>
<path class="st1" d="M-462.7-522.5l347.1-141.7c2.4-1,4-3.1,4.4-5.5l-5.3-16l-357,147.7C-469.2-534-465.6-528.8-462.7-522.5z"/>
<path class="st1" d="M-498.3-551.6c6.1,1.5,12.3,4,18.1,7.9l361.8-149.6l-1.7-10.4c-31.6,10.2-227.4,73.8-244.4,80.2
	C-458.7-588.2-486-567.8-498.3-551.6z"/>
<path class="st0" d="M2439.7,657.3l-16-12.9l-24.8,8c3.9,0.5,7.9,0.9,12.2,1.4C2419.7,654.8,2429.2,655.9,2439.7,657.3z"/>
<path class="st0" d="M2633.5,789.6c62.8,5.7,127.7,11.6,197.2,18.8c5.6-1,52.5-9.1,82.6-14.2c-93.6-12.8-237.3-33.2-351.6-49.4
	l-139.7,17c-1.3,0.1-1.9,1.5-2.1,2c-0.7,1.8-0.3,3.5,0,3.8c2.1,0.5,12.3,2.4,16.2,3.1C2505.6,778,2570.6,783.9,2633.5,789.6z"/>
<path class="st0" d="M3011.7,797.3l213.8-109.6c4.8-2.5,7.7-7.5,7.4-12.9l-1.5-37.5c-0.2-4.4-3.5-8-7.9-8.5l-46.9-5.2l0.1,28.2
	c0,0.4-0.1,0.7-0.1,1l38.3-17.8c0.7-0.4,1.5-0.5,2.4-0.4c1.7,0.3,3,1.6,3.2,3.3l0.1,0.5c0.7,5.4,1.2,9.9,1.5,13.9v0.1
	c1.6,21.3-2,24.9-3.6,26.4c-0.3,0.3-0.6,0.5-1,0.7L3004.2,787c-0.5,0.3-1.1,0.4-1.7,0.4c-0.2,0-0.4,0-0.5,0l-589.9-82.2l-17.7,7.8
	c76.5,11,553.4,79.2,611,85.5C3007.6,798.7,3009.8,798.3,3011.7,797.3z"/>
<path class="st0" d="M2501.9,694.3l653.8-31.3h0.1l2.7-0.1c5.9-0.2,10.5-5,10.5-10.9l-0.4-77.1c-18.6,1.4-88.7,4.7-173.6,8.2
	c-0.1,0-0.1,0-0.2,0c-0.2,0-0.4-0.1-0.6-0.1l-66.5,17c-0.3,0.1-0.6,0.1-1,0.1c-0.2,0-0.3,0-0.5,0l-98-11.8
	c-127.4,4.2-261.4,6.9-317.1,7.1c1,9.2,1.5,18.6,1.5,28c0,0.1,0,0.1,0,0.2c0,19.4-2,38.8-6,57.4v0.1c0,0.1-0.1,0.3-0.2,0.4
	c-0.1,0.3-0.3,0.6-0.5,0.9c0,0.1,0,0.1-0.1,0.2c-0.1,0.1-0.1,0.1-0.2,0.2c-0.3,0.3-0.6,0.6-0.9,0.8c-0.1,0.1-0.2,0.2-0.4,0.2
	c-0.5,0.2-1,0.3-1.5,0.3l0,0l0,0l0,0c-0.3,0-0.5,0-0.8-0.1c-0.1,0-0.1-0.1-0.2-0.1c-0.3-0.1-0.6-0.2-0.9-0.4
	c-0.1-0.1-0.3-0.1-0.4-0.2c0,0-0.1,0-0.1-0.1c-18.4-14.6-37.4-29.1-55.7-43.2c-17.7-13.6-36-27.7-53.9-41.8l-8,3.7l111.8,90.2
	C2496.9,693.6,2499.4,694.4,2501.9,694.3z"/>
<path class="st0" d="M2449.7,633.6c16.7,12.8,33.9,26.1,50.8,39.4c1-5.1,1.8-10.3,2.5-15.6l-108.5-80.6l0.8,14.6
	C2413.4,605.7,2431.8,619.9,2449.7,633.6z"/>
<path class="st0" d="M2453.4,559.6c-20.1-13.4-39.2-26.2-62.2-42.6l1,18.1l112.9,81.1c-0.2-7.6-0.7-15.2-1.6-22.6
	C2484.8,580.6,2468.8,569.9,2453.4,559.6z"/>
<path class="st0" d="M2829,908.6c-0.7,1.3-2,2.1-3.4,2.1c-0.1,0-0.3,0-0.4,0c-2.6-0.3-255.7-28.1-390-44l-9.8,0.8
	c-2,0.9-2.7,3.6-2.5,5.9c0.2,2.1,1.2,4.7,3.5,5l401.5,45.4l121.1-31c-41.9-2.8-79.5-6.1-111.4-10
	C2835.9,892.3,2833,900.9,2829,908.6z"/>
<path class="st0" d="M3177.1,823.1l0.8-53.9c-0.2-5-3.7-9.2-8.5-10.5c-0.5,0.4-1,0.6-1.7,0.7c0,0-40.2,6.4-95.2,15.3l-57.3,29.4
	c-2.7,1.4-5.6,2.1-8.6,2.1c-0.7,0-1.4,0-2.1-0.1c-10.2-1.1-33.7-4.2-65.8-8.5c-7,1.2-80.8,13.7-103.7,17.8
	c4.5,22.5,5.7,42.4,3.7,59.6c37.6,4.6,83.2,8.3,134.4,11.5l193.5-49.5C3173,835.4,3177.4,829.5,3177.1,823.1z"/>
<path class="st0" d="M2831.7,847.5l-392.4-40.3l-0.1,23.1l392,43.8C2832.2,865.9,2832.3,857,2831.7,847.5z"/>
<path class="st0" d="M2632.8,797.3c-61.7-5.6-125.4-11.4-193.4-18.4l-0.1,20.6l391.8,40.2c-0.8-7.6-2-15.5-3.8-23.9
	C2758.9,808.7,2694.8,802.9,2632.8,797.3z"/>
<path class="st0" d="M2439.1,859.3c127.4,15.1,356.8,40.4,384.2,43.4c3-6.3,5.2-13.3,6.6-21l-390.8-43.6V859.3z"/>
<path class="st0" d="M3029.7,573.8c72.7-3.1,123.4-5.6,138.1-6.7c-0.9-1.8-2.3-3.3-4.3-4.1l-36.1-14.2L3029.7,573.8z"/>
<path class="st0" d="M2928.7,477.3c86.6-15.7,239.8-41,305.4-51.8l-389.3-17.1c-1.9-0.1-3.7-0.1-5.6,0.1l-318.8,21.9
	c-1.1,0.1-1.7,1.5-1.9,2c-0.7,1.8-0.3,3.5,0,3.8c0.2,0,0.3,0.2,0.5,0.2c0.1,0,0.3-0.1,0.4,0c69.6,7.3,138.4,14,204.9,20.5
	C2790.7,463.4,2859.3,470.1,2928.7,477.3z"/>
<path class="st0" d="M2930.8,519.2l-394.4-40.5v22.1l394.1,43.7C2931.5,535.8,2931.4,527.3,2930.8,519.2z"/>
<path class="st0" d="M2536.4,527.7l386.9,43.6l0.2-0.5c2.8-6.1,4.6-12.4,5.8-18.7l-392.9-43.5V527.7z"/>
<polygon class="st0" points="2691.4,693 2999.8,735.1 3136.4,671.7 "/>
<path class="st0" d="M2476.3,686.8l-25.1-20.3c-13.2-1.7-24.9-3.2-35.4-4.4l-0.1,15.2c7.6,1.1,19.6,3,32.2,5
	C2457.6,683.9,2467.6,685.5,2476.3,686.8z"/>
<path class="st0" d="M2521.6,540.2c0.1,1.6,1.2,3.4,3.6,3.7l401.5,48.4l338.8-86.7c6.2-1.6,10.6-7.4,10.4-13.9l0.8-53.9
	c-0.2-5-3.7-9.2-8.5-10.5c-0.5,0.4-1,0.6-1.6,0.7c-2.2,0.4-219.9,35.9-332.7,56.2c0.3,1.8,0.6,3.7,0.9,5.7c3.8,23,9,54.6-4.2,84
	l-1.4,3c-0.6,1.4-2,2.3-3.5,2.3c-0.1,0-0.3,0-0.4,0l-391.2-44.1l-9.8,0.8C2522.1,536.8,2521.5,538.7,2521.6,540.2z"/>
<path class="st0" d="M2505.2,625.8L2392.7,545l1.3,21.9l110,81.7C2504.7,641,2505.1,633.4,2505.2,625.8z"/>
<path class="st0" d="M2926.1,484.8c-68.8-7.2-136.7-13.8-202.5-20.3c-60.9-5.9-123.7-12.1-187.2-18.7v25l393.7,40.4
	c-0.8-7.2-1.9-14-2.9-20.1C2926.7,489,2926.4,486.9,2926.1,484.8z"/>
<path class="st0" d="M2389,506C2389,506,2389.1,506,2389,506c26.1,18.7,46.8,32.6,68.7,47.2c15.6,10.4,31.8,21.2,50.7,34.3
	c46.6,0,156.1-2.1,269.3-5.5l-253.4-30.5c-5.7-0.7-9.8-5-10.3-10.7c-0.5-5.6,2.8-10.6,8.2-12.3c0.3-0.1,0.6-0.1,0.9-0.2l5.7-0.5
	v-33.9l-154.1,2.2L2389,506C2389,505.9,2389,506,2389,506z"/>
<path d="M3706,900.8c-217.2,0-501.3-1.6-707.2-12.9l170-43.5c9.7-2.5,16.5-11.6,16.2-21.4l0.8-53.9c-0.4-10-8.1-17.9-18.1-18.5
	l-44-1.9l105.6-54.1c7.4-3.9,12-11.8,11.6-20.1l-1.5-37.4c-0.3-8.3-6.5-14.9-14.7-15.8l-47.8-5.3l-0.2-45.3c0-6.5-4-12.3-10-14.7
	l-26.2-10.3l127.2-32.6c9.7-2.5,16.5-11.6,16.2-21.4l0.8-53.9c-0.4-10-8.1-17.9-18.1-18.5l-421.1-18.5c-2.2-0.1-4.3-0.1-6.4,0.1
	l-318.8,22c-5,0.4-8.8,4.7-9.4,10.6c-0.5,5.1,1.9,9.2,5.9,10.3c0.3,0.1,0.5,0,0.8,0.1c0.4,0.2,0.8,0.4,1.3,0.4c3.3,0.4,6.7,0.7,10,1
	v41.2l-154.2,2.2c-3.4,0-6.4,2.3-7.4,5.6c-1,3.3,0.3,6.8,3.1,8.7l12.9,8.6l4.6,79.7l-9.1,4.2c-2.1,0.3-3.8,1.7-4.6,3.7
	c-0.9,2.4-0.2,5,1.8,6.7l40.7,32.9l-29.6,9.5c-2.4,0.8-4,3.1-3.8,5.6s2,4.6,4.7,5.1c6.3,0.8,13,1.6,20.2,2.5l-0.3,37.5l-25.4,11.2
	c-2,0.7-3.4,2.6-3.3,4.8c0.1,2.4,1.9,4.3,4.1,4.5c1.9,0.3,64.3,9.2,149.1,21.3l-111.1,13.6c-5,0.4-8.8,4.7-9.4,10.6
	c-0.5,5.1,1.9,9.2,5.9,10.3c2.2,0.6,9.5,1.9,13.8,2.7l-0.2,81.4l-7.1,0.6c-0.3,0-0.6,0.1-0.9,0.2c-5.5,1.8-8.8,7.4-8.2,14
	c0.6,6.4,4.7,11.2,10.3,12l167.8,19c-58.9,0.1-116.5,0.2-172.8,0.3c-59.5,0.1-119.9,0.3-182,0.3v7.7c62.2-0.1,122.5-0.2,182.1-0.3
	c77.7-0.2,158-0.4,240.7-0.4l166.5,18.8c0.1,0,0.3,0,0.4,0c0.3,0,0.6,0,1-0.1l144.8-37.1c207.7,12.6,506,14.3,731.9,14.3
	c2.1,0,3.9-1.7,3.9-3.9C3709.8,902.6,3708.1,900.8,3706,900.8z M3134.8,756.9c-11.1,1.8-24.6,4-39.8,6.4l14.7-7.5L3134.8,756.9z
	 M3173,663.1l40.6-18.9c0.3,2.3,0.5,4.3,0.7,6.2l-214.5,107.3c-18.7-2.6-252.9-35.2-425.7-59.2l75-3.6l350.7,48c0.2,0,0.3,0,0.5,0
	c0.6,0,1.1-0.1,1.6-0.4l154.9-72l2.1-0.1C3164.8,670.3,3169.8,667.5,3173,663.1z M2446.7,690c15.1,2.4,30.6,4.9,41.4,6.3l1.9,1.5
	c3.2,2.7,7.3,4.2,11.6,4.2c0.2,0,0.5,0,0.7,0l30.1-1.4c180.8,25.1,467.6,65,467.6,65c0.2,0,0.4,0,0.5,0c0.6,0,1.2-0.1,1.7-0.4
	l212.6-106.4c0.3,10-0.9,13.4-1.4,14.3l-211.6,106.4l-586.4-81.7l0.1-12.7C2423.1,686.2,2434.6,688.1,2446.7,690z M2415.6,677.4
	l0.1-15.2c10.6,1.3,22.2,2.7,35.4,4.4l25.1,20.3c-8.7-1.3-18.7-2.9-28.4-4.4C2435.2,680.3,2423.2,678.4,2415.6,677.4z M2691.4,693
	l445-21.3l-136.6,63.5L2691.4,693z M3163.5,563.1c2,0.8,3.4,2.3,4.3,4.1c-14.7,1.1-65.4,3.6-138.1,6.7l97.7-25L3163.5,563.1z
	 M2519.4,436.4c-0.1,0-0.3,0-0.4,0c-0.2-0.1-0.3-0.2-0.5-0.2c-0.3-0.3-0.7-2,0-3.8c0.2-0.4,0.8-1.9,1.9-2l318.8-21.9
	c1.8-0.1,3.7-0.2,5.6-0.1l389.3,17.1c-65.5,10.8-218.8,36.2-305.4,51.8c-69.4-7.3-138-14-204.4-20.5
	C2657.8,450.4,2589,443.6,2519.4,436.4z M2536.4,500.7v-22.1l394.4,40.5c0.6,8.1,0.7,16.7-0.3,25.2L2536.4,500.7z M2929.3,552
	c-1.2,6.3-3.1,12.6-5.8,18.7l-0.2,0.5l-386.9-43.6v-19.2L2929.3,552z M2536.4,470.9v-25c63.5,6.6,126.3,12.7,187.2,18.7
	c65.7,6.4,133.7,13.1,202.5,20.3c0.3,2,0.7,4.1,1,6.4c1,6.2,2.1,13,2.9,20.1L2536.4,470.9z M2533.9,535.2l391.2,44.1
	c0.1,0,0.3,0,0.4,0c1.5,0,2.9-0.9,3.5-2.3l1.4-3c13.2-29.4,8-61,4.2-84c-0.3-2-0.6-3.8-0.9-5.7c112.7-20.3,330.5-55.9,332.7-56.2
	c0.6-0.1,1.2-0.4,1.6-0.7c4.8,1.3,8.3,5.5,8.5,10.5l-0.8,53.9c0.2,6.4-4.1,12.3-10.4,13.9l-338.8,86.7L2525,544
	c-2.4-0.3-3.4-2.1-3.6-3.7c-0.1-1.5,0.5-3.3,2.5-4.2L2533.9,535.2z M2374.5,496.2l154.1-2.2v33.9l-5.7,0.5c-0.3,0-0.6,0.1-0.9,0.2
	c-5.4,1.7-8.7,6.7-8.2,12.3s4.6,9.9,10.3,10.7l253.4,30.5c-113.2,3.4-222.7,5.4-269.3,5.5c-18.9-13.1-35-23.9-50.7-34.3
	c-21.9-14.6-42.6-28.4-68.6-47.2c0,0,0,0-0.1,0l0,0L2374.5,496.2z M2394,566.9l-1.3-21.9l112.4,80.8c-0.1,7.6-0.5,15.2-1.2,22.8
	L2394,566.9z M2503,657.5c-0.7,5.3-1.5,10.4-2.5,15.6c-16.9-13.3-34.1-26.5-50.8-39.4c-17.9-13.7-36.4-27.9-54.3-42.2l-0.8-14.6
	L2503,657.5z M2392.2,535.1l-1-18.1c23.1,16.4,42.2,29.2,62.2,42.6c15.5,10.3,31.5,21,50.1,33.9c0.9,7.4,1.4,15,1.6,22.6
	L2392.2,535.1z M2383.1,601.7l8-3.7c17.8,14.1,36.2,28.2,53.9,41.8c18.3,14.1,37.3,28.7,55.7,43.2c0,0,0.1,0,0.1,0.1
	c0.1,0.1,0.3,0.2,0.4,0.2c0.3,0.2,0.6,0.3,0.9,0.4c0.1,0,0.1,0.1,0.2,0.1c0.3,0.1,0.5,0.1,0.8,0.1l0,0l0,0l0,0c0.5,0,1-0.1,1.5-0.3
	c0.1-0.1,0.2-0.1,0.4-0.2c0.4-0.2,0.7-0.5,0.9-0.8c0.1-0.1,0.2-0.1,0.2-0.2c0,0,0-0.1,0.1-0.2c0.2-0.3,0.3-0.6,0.5-0.9
	c0.1-0.1,0.1-0.3,0.2-0.4v-0.1c4.1-18.6,6.1-38.1,6-57.4c0-0.1,0-0.1,0-0.2c0-9.4-0.5-18.7-1.5-28c55.6-0.1,189.7-2.8,317.1-7.1
	l98,11.8c0.2,0,0.3,0,0.5,0c0.3,0,0.6,0,1-0.1l66.5-17c0.2,0,0.4,0.1,0.6,0.1c0.1,0,0.1,0,0.2,0c84.9-3.5,154.9-6.8,173.6-8.2
	l0.4,77.1c0,5.9-4.6,10.7-10.5,10.9l-2.7,0.1h-0.1l-653.8,31.3c-2.5,0-5-0.8-7-2.5L2383.1,601.7z M2398.9,652.3l24.8-8l16,12.9
	c-10.5-1.3-20-2.4-28.6-3.5C2406.8,653.3,2402.7,652.8,2398.9,652.3z M2394.4,713l17.7-7.8l589.9,82.2c0.2,0,0.4,0,0.5,0
	c0.6,0,1.2-0.1,1.7-0.4l213.5-107.4c0.4-0.2,0.7-0.4,1-0.7c1.5-1.5,5.2-5.1,3.6-26.4v-0.1c-0.3-4-0.8-8.6-1.5-13.9l-0.1-0.5
	c-0.2-1.7-1.5-3-3.2-3.3c-0.8-0.1-1.7,0-2.4,0.4l-38.3,17.8c0-0.3,0.1-0.7,0.1-1l-0.1-28.2l46.9,5.2c4.4,0.5,7.7,4,7.9,8.5l1.5,37.5
	c0.3,5.4-2.7,10.4-7.4,12.9l-213.8,109.6c-1.9,1-4.1,1.4-6.3,1.2C2947.8,792.2,2471,724,2394.4,713z M2419.9,767.6
	c-0.3-0.3-0.7-2,0-3.8c0.2-0.4,0.8-1.9,2.1-2l139.7-17.1c114.2,16.3,258,36.6,351.6,49.4c-30.2,5.2-77,13.3-82.6,14.2
	c-69.4-7.3-134.4-13.1-197.2-18.8c-62.9-5.7-127.9-11.6-197.4-18.8C2432.2,770,2422,768.1,2419.9,767.6z M2439.2,830.3l0.1-23.1
	l392.4,40.3c0.6,9.5,0.5,18.4-0.5,26.6L2439.2,830.3z M2829.9,881.7c-1.5,7.6-3.6,14.7-6.6,21c-27.4-3-256.8-28.3-384.2-43.4
	l0.1-21.2L2829.9,881.7z M2439.3,799.5l0.1-20.6c68,7.1,131.8,12.9,193.4,18.4c62,5.6,126.1,11.4,194.6,18.6
	c1.7,8.3,3,16.3,3.8,23.9L2439.3,799.5z M2828,923.7l-401.5-45.4c-2.3-0.3-3.3-2.9-3.5-5c-0.2-2.3,0.5-5,2.5-5.9l9.8-0.8
	c134.2,15.9,387.4,43.8,390,44c0.1,0,0.3,0,0.4,0c1.4,0,2.8-0.8,3.4-2.1c4-7.7,6.9-16.4,8.7-25.9c31.9,3.9,69.5,7.2,111.4,10
	L2828,923.7z M2973.3,886.5c-51.2-3.1-96.8-6.9-134.4-11.5c2.1-17.2,0.8-37.2-3.7-59.6c22.9-4,96.7-16.6,103.7-17.8
	c32,4.3,55.5,7.4,65.8,8.5c0.7,0.1,1.4,0.1,2.1,0.1c3,0,5.9-0.7,8.6-2.1l57.3-29.4c55-8.9,95.2-15.3,95.2-15.3
	c0.6-0.1,1.2-0.4,1.7-0.7c4.8,1.3,8.4,5.5,8.5,10.5l-0.8,53.9c0.2,6.4-4.1,12.3-10.4,13.9L2973.3,886.5z"/>
<path class="st2" d="M-399.2-445.9c-60.2,0-129.5-4.2-147.7-34.4c20.7,9.2,43.1,8.8,61.6-1.5c14.1-7.9,23.2-20.4,24.4-33.1
	l348.4-142.2c5.3-2.2,8.9-7.1,9.3-12.8c0-0.5,0-1-0.2-1.5l-6.8-20.5l-6.4-39.2c0-0.1,0-0.1-0.1-0.2v-0.1c0-0.1-0.1-0.2-0.2-0.3
	c-0.1-0.3-0.2-0.6-0.4-0.9c-0.1-0.1-0.2-0.3-0.3-0.4c-0.1-0.1-0.2-0.3-0.3-0.4l-335-297.5c-0.7-0.6-1.6-1-2.6-1
	c-4.6,0-112.4,0.1-160.5,9.5c-30.9,6-139.7,47.7-174.3,101.6c-0.1,0-0.1-0.1-0.2-0.1c-0.2-0.2-0.5-0.3-0.7-0.5
	c-16.7-10.8-73.7-43.3-138.1-32.5c-102.3,17.2-224.3,80-225.5,80.6c-0.3,0.2-0.6,0.4-0.9,0.7c-0.1,0.1-0.1,0.2-0.2,0.2
	c-0.1,0.1-0.3,0.3-0.4,0.4l-16.7,25.8c-0.1,0.1-0.1,0.3-0.2,0.5c0,0.1-0.1,0.1-0.1,0.2c-0.2,0.4-0.2,0.8-0.3,1.3c0,0.1,0,0.2,0,0.3
	c0,0.5,0.1,0.9,0.3,1.4l1.6,3.8l0,0l-8,5.1c-5.7,3.6-8,10.8-5.4,17l152.1,376c-158.6,7.3-476.2-2.9-479.6-3h-0.1
	c-2.1,0-3.8,1.6-3.9,3.7s1.6,3.9,3.7,4c2.5,0.1,175.4,5.6,329.9,5.6c56.6,0,110.7-0.8,153-2.8l7.4,18.4c1.5,5.3,6.3,8.7,11.6,8.7
	c0.8,0,1.5-0.1,2.3-0.2l451.5-78.3c13.2,40.5,87,46,158,46c145.8,0,280.9-11.8,398.1-33.5v-7.8
	C-118.1-457.7-253.2-445.9-399.2-445.9z M-116.4-685.8l5.3,16c-0.4,2.5-2.1,4.6-4.4,5.5l-347.1,141.7c-2.9-6.3-6.6-11.4-10.8-15.6
	L-116.4-685.8z M-118.4-693.3l-361.8,149.6c-5.7-3.9-12-6.5-18.1-7.9c12.2-16.2,39.6-36.6,133.7-71.9c17-6.4,212.9-70,244.4-80.2
	L-118.4-693.3z M-121.4-711.5c-28.7,9.3-228.3,74.1-245.9,80.7c-102,38.3-127.6,60.1-139.5,77.8c-2.9-0.2-5.6-0.3-8.2-0.1l-1.4-8.9
	c14.3-20.2,62.2-56.7,152.6-95c47.1-20,212.1-61.7,240.1-68.7L-121.4-711.5z M-614.6-1014.6c44.4-8.7,144.3-9.3,157.6-9.4
	l328.4,291.6c-35.7,9-191.5,48.5-238.2,68.3c-87.6,37.2-136.5,73.2-153.7,94.8l-264.7-344.8C-755.9-963.4-651.3-1007.4-614.6-1014.6
	z M-683.7-559.7c-52.9,6.8-266.4,71.7-307.4,84.3l2.7-11c20-8.6,205.1-87.1,306.6-99.1c101.2-11.9,150.5,20.1,157.9,25.4l0.8,4.8
	C-537.4-559.7-588-572-683.7-559.7z M-530.6-549.3c-6.1,2.6-11.4,6.4-15.7,11.1c-8.8-1.5-42.3-4.7-134.6,9.3
	c-49,7.4-274.1,60.2-314.1,69.6l1.8-7.3c24.6-7.5,256.5-78.4,310.5-85.3C-598.4-562.8-549.2-554.1-530.6-549.3z M-928-946
	c61.9-10.4,116.8,21.2,132.7,31.4L-535-575.5c-23.1-11.3-70.6-26.7-147.7-17.6c-100.1,11.8-279.5,87.1-307,98.9L-1148-867.8
	C-1128.4-877.7-1020-930.6-928-946z M-1153.7-861.4l157.9,372.6l-9.7,40.2l-159.8-394.8L-1153.7-861.4z M-1024.9-440.7L-1178-819.3
	c-1.2-2.8-0.2-5.9,2.4-7.6l6.9-4.4l157.8,389.7C-1015.4-441.2-1020.1-441-1024.9-440.7z M-558.4-491.8l-451.7,78.4
	c-2.2,0.4-4.4-0.9-5.2-3.4l-6.6-16.3c5.8-0.3,11.4-0.7,16.7-1c0,0,0,0,0.1,0s0.2,0,0.3,0l446.4-78.3
	C-559.4-506.1-559.4-499.2-558.4-491.8z M-556.3-520.8l-442.6,77.7l1.9-7.8c26.1-6.2,266.8-62.8,317.3-70.4
	c80.7-12.2,115.7-11.1,128.1-9.8C-553.5-527.9-555.1-524.5-556.3-520.8z M-518.6-544.9c14.7-2.7,39.8,2.6,49.9,28
	c-0.3,10.6-8.1,21.4-20.5,28.3c-18.4,10.3-41.1,9.4-61.3-2.2C-554.4-513.4-546.1-539.8-518.6-544.9z"/>
<path class="st2" d="M590.9-445.8l22.2-8.8c1.7,0.7,3.6,1,5.6,1c4.5,0,9.4-1.3,12.4-2.5c6.5-2.6,10.2-6.3,10.2-10.5v-21.1l26.6,8.7
	c0.6,0.2,1.4,0.3,2.3,0.3c10.8,0,43-12.3,52.4-18.8c2.3-1.6,5-3.9,5.1-7l-0.4-501.6c0.1-6.3-5.3-12.7-11.3-13.5l-74.4-15.2v-51.2
	c0.1-6.3-4.5-11.7-10.7-12.5l-367-51.7c-1.9-0.3-3.8-0.1-5.6,0.5l-33.8,11.1c-5.3,1.7-8.7,6.6-8.6,12v120.4l-48-10
	c-1.9-0.3-3.8-0.1-5.6,0.5c-0.1,0-0.3,0.1-0.4,0.2l-27.6,12.7c-5.1,1.8-8.5,6.6-8.3,12.1l12.7,477.9c-42.9,12.9-89.7,24-139.9,33.3
	v7.8C49-481,96-492.2,139.1-505c0.8,4.3,3.8,7.9,7.7,9.3l270.9,125.3c1.4,0.5,2.8,0.7,4.2,0.7c2.6,0,5.1-0.8,7.3-2.3
	c3.3-2.4,5.3-6.3,5.2-10.4v-2.3c0-0.6,0.1-1.1,0.3-1.6l0,0c0.5-1.4,1.5-2.5,3-2.9c0.1,0,0.3-0.1,0.4-0.2l39.6-18.7
	c1.2-0.3,2.5-0.2,3.6,0.4c5,2.8,11.8,0.9,16.2-1.6c4.9-2.9,7.8-6.9,7.8-11l0.1-6.2l31.7,9.8c1.4,0.5,2.8,0.7,4.2,0.7
	c2.6,0,5.1-0.8,7.3-2.3c3.3-2.4,5.3-6.3,5.2-10.3c0-0.2,0-1.1,0-2.5l17.9-7.1c90.7,0.6,175.7,0.7,257.1,0.7c18.7,0,420.1,0,438.5,0
	v-7.7C1174.6-445.1,695-445.2,590.9-445.8z M716.9-1011c1.5,1.2,2.8,3.1,2.8,4.9l0.4,500.9c-4.3,5.2-36.4,17-46.9,18.7
	c0.5-100.4,0.3-175.9,0-248.9c-0.2-73-0.5-148.5,0-249.1C698.8-988.2,712.3-1004.3,716.9-1011z M641.6-1027l67.3,13.8
	c-5,6.5-16.7,18.2-37,21.1c-0.4-0.3-0.9-0.6-1.5-0.7l-28.8-6V-1027z M641.6-990.9l23.9,5c-0.5,101.3-0.3,177.2,0,250.6
	c0.2,72.6,0.5,147.7,0,247.4l-24.1-7.9L641.6-990.9z M427.2-388.6c-0.4,1.3-0.6,2.6-0.6,4v2.3c0,1.6-0.7,3-2,3.9s-2.9,1.1-4.1,0.7
	L149.7-502.8c-1.9-0.7-3.1-2.4-3.1-4.4l0,0c105.9-32.4,187.6-75.1,236.4-126.1c20.7-21.7,35.3-44.5,43.6-68.4
	c0.1,18.4,0.2,36.3,0.3,54C427.3-572.3,427.7-494.3,427.2-388.6z M434.1-759.1c-0.1-44.1-0.1-92.2,0.1-148.2c0-1.7-1.1-3.3-2.8-3.7
	l-266.2-75.4l11.7-6.2l301,71.4c-0.5,100.9-1.3,178.2-2,253c-0.7,74.9-1.4,152.3-1.9,253.3l-39,18.4c0.5-101.7,0-177.7-0.4-251.2
	c-0.2-28.6-0.3-57.6-0.4-88.3 M502.6-934.7l-5,514.3c0,1-1.3,2.8-4,4.4c-3.4,2-7.1,2.4-8.5,1.6c-1-0.6-2.2-0.9-3.3-1.2
	c0.5-100.5,1.2-177.8,1.9-252.5c0.7-75.6,1.4-153.8,2-256.1c0-1.8-1.2-3.4-3-3.8l-305.5-72.4c-0.9-0.2-1.9-0.1-2.7,0.3L153-988.7
	c-1.4,0.7-2.2,2.3-2,3.8c0.2,1.6,1.3,2.9,2.8,3.3l272.7,77.1c-0.3,64.4-0.2,118.5-0.1,168c-3.5,34.5-19.9,67.3-49,97.8
	c-47.6,49.8-127.5,91.6-231,123.5L133.6-991c0-2.1,1.3-4,3.3-4.6c0.1,0,0.3-0.1,0.4-0.2l27.6-12.7c0.6-0.2,1.3-0.2,1.7-0.2
	l331.9,69.1C500.9-939.1,502.6-937.1,502.6-934.7L502.6-934.7z M544-424.6c-1.3,0.9-2.9,1.1-4.5,0.6l-34.1-10.6l4.9-500
	c0.1-6.3-4.5-11.7-10.5-12.5l-276.2-57.5v-0.1v-121.9c0-2.1,1.3-4,3.3-4.6l33.8-11.1c0.7-0.2,1.4-0.3,2.1-0.2l367,51.7
	c2.4,0.3,4.1,2.4,4.1,4.8l-0.3,619.2c-0.3,0.8-3,3-8.1,4.5c-3.7,1.1-6.5,1.2-8.3,1c-0.2-0.3-0.4-0.5-0.6-0.7
	c-0.3-22.6,0.8-190.1,1.7-352.4c0.6-96.4,1.2-193.7,1.5-265.3c0-0.2-0.1-0.3-0.1-0.5c0-0.3-0.1-0.5-0.1-0.7
	c-0.1-0.2-0.2-0.5-0.3-0.7s-0.2-0.4-0.4-0.6s-0.4-0.3-0.5-0.5c-0.2-0.2-0.4-0.3-0.6-0.4c-0.2-0.1-0.5-0.2-0.7-0.3
	c-0.2,0-0.3-0.1-0.5-0.2l-346.7-50.1c-0.1,0-0.1,0-0.2,0c-0.3,0-0.5,0-0.8,0s-0.5,0-0.7,0.1c-0.1,0-0.1,0-0.2,0l-23.6,9.1
	c-0.1,0-0.2,0.1-0.3,0.2c-0.3,0.1-0.5,0.3-0.7,0.5c-0.2,0.1-0.3,0.3-0.4,0.5c-0.2,0.2-0.3,0.4-0.5,0.7c-0.1,0.2-0.2,0.4-0.3,0.7
	c0,0.1-0.1,0.3-0.2,0.4c0,0.1,0,0.2,0,0.3c0,0.3,0,0.5,0,0.8s0.1,0.5,0.1,0.8c0,0.1,0,0.2,0.1,0.3c0.1,0.2,0.2,0.3,0.3,0.5
	c0.1,0.1,0.1,0.3,0.2,0.4c0.3,0.3,0.5,0.7,0.9,0.9c0,0,0.1,0,0.1,0.1c0.4,0.2,0.8,0.4,1.2,0.5c0.1,0,0.1,0.1,0.2,0.1l300.7,59
	c-0.9,197.6,0,574.9,0.2,624l0,0c0,3.2,0,5,0,5.3C546-426.9,545.3-425.5,544-424.6z M553.7-439.4c-0.2-67-1.1-429.7-0.2-620.6
	c0-1-0.4-1.9-1-2.6c-0.5-1.1-1.4-2.1-2.8-2.3L259.5-1122l10.2-3.9l342.5,49.4c-0.4,71.3-0.9,167-1.5,261.9
	c-0.5,89.6-1.1,178.3-1.4,244.7c-0.4,75.7-0.5,100.2-0.1,108.6L553.7-439.4z"/>
<path class="st1" d="M-3.3,751.6c0,0,125.4,172.3,227.6,217.4c88.2,38.9,146,57.7,159.8,56.5c2.3-0.2,112.8-8.8,142.9-29.4
	c33.3-19.2,14.1-40.7,6.2-49.1c-7.9-8.5-33.9-35-33.9-37.8s-11.3-14.7,27.1-13.6c38.4,1.1,42.9-2.8,44-5.1s7.9-4.5-15.8-10.7
	s-66.6-12.4-70-13s-2.8-14.7,2.3-27.7c5.1-13,41.2-80.2,41.2-83.6s-2.4-2.8-2.4-1.7s17.8,6.8,17.8,6.8s119.3,22,126.1,22
	s4.2,4,11.3-1.1s35.9-30.8,37.3-35.3c1.4-4.5-1.4-5.6-7.6-7.1c-6.2-1.4-153-32.2-151.3-33.6s4.2-0.6,7.3,0s314.5,53.9,318.5,54.2
	s7.6,4,15.5-3.7s84.1-86.4,87.5-90.6s9-8.8,0.3-10.2S763.6,627.5,762,625.6c-1.7-2,215.7,21.7,223.1,23.2c7.3,1.4,22.9,3.1,21.2,4
	c-1.7,0.8-19.8,29.4-40.1,27.4S743.4,648,740,648s-10.7-2-5.9,3.4s10.7,11-5.6,9.6c-16.4-1.4-105.6-18.6-109.6-20.9
	c-4-2.3-6.8-6.2,0.8-5.6s55.6,8.8,53.1,6.8s-53.9-10.2-56.2-13.3s-4-5.1-1.7-8.8s15.5-16.9,17.5-21.5c2-4.5,1.1-11.3-2.8-4.5
	c-4,6.8-6.8,11,2.3,13.3c9,2.3,33.6,7.9,36.1,6.8c2.5-1.1,2.3-6.5-0.8-14.1s-2.3-15.8-4.2-13c-2,2.8-0.6,4-11,2.8
	s-14.7-0.8-14.1-6.8c0.6-5.9,48-79.9,48.6-82.2s1.1-7.9-4.5,0.3c-5.6,8.2-40.7,74.8-45.5,78.8s-35,41.2-35,41.2l-60.7,87.5
	L506.3,772l-57.6,112.7c-7.2,20.2-18.6,42.8-37,63.8c-2.4,2.8-4.8,5.4-7.3,7.9c-17.6-3.5-35.2-6.9-52.8-10.4
	c-10.6-3.4-58.7-19.2-105-39.2c0,0-28.3-12.2-49-34.4c-1.2-1.2-3.1-3.4-4.9-6.5c-0.4-0.8-12.8-17.4-3.4-29.6
	c5.9-7.6,17.5-20.3,28.2-24.3s24.6-8.8,28.5-8.5c4,0.3,2.8,4.8-8.2,12.1s-57.6,37.3-62.7,43.2c-4.2,4.9-13.1,10-13.2,17.1
	c0,0,0,2.3,1.1,4.6c15.1,32.4,68,56.2,68,56.2c10.4,4.7,24.8,10.7,42.2,16.9c11.1,3.9,26.1,8.1,55.8,16.4
	c36.2,10.1,53,14.3,72.9,7.1c0.9-0.3,1.9-0.7,3.1-1.2c19.4-8.1,29-22.2,53.4-60.4c15.5-24.3,24.4-38.9,27.5-36.8
	c2.4,1.6,2.7,7.8-22.2,5.2c-24.8-2.5-43.3-6.2-49.3-7.9c-5.9-1.7-95.2-37.8-103.3-42.9c-8.2-5.1-43.3-27.5-46.3-27.5
	s-2.8,3.2-0.3,1.6s80.6-66.6,79.5-68.3s-20.6-5.8-20.6-5.8s-115.1-20-115.8-21.1s3-5.1,7.1-6.9c4.1-1.8,78.6-36.7,81.7-36.7
	s119.2,14.8,113.1,13.1s-105.3-16.5-105-18.2c0.3-1.7,113.1-51.7,117.3-51.1c4.2,0.6,57.9,5.2,52.8,3.7c-5.1-1.6-45.6-6.9-44.2-8.8
	c1.4-1.8,27.1-16.2,27.8-17.2s1.6-2.5-6.9,1.8S197.3,706.9,197,708.9s-3,17.6,5.2,19.9c8.2,2.3,121.8,28.7,128.5,25.3
	c6.6-3.4,60.7-46.9,60.7-46.9s67.5-58.7,71.4-63.1s14.4-19.6,20-24.8s25-19.5,26.1-24.3s1.8-31.1,0.8-43.6c-1-12.6-3.7-24-4.5-36.8
	s-4.2-23.9-1.3-34.6c3-10.7,28.5-56,31.6-62.4s17.8-39.2,18.9-36.7s4.1,23.9,1.7,22.3c-2.4-1.6,2.4-60.1,6.1-65.4
	c3.7-5.2,40.7-38,48.7-40.1s19.3-4.9,20.8-1.6c1.4,3.4-20,16.9-20,19.5c0,2.6,5.5,13.4,1,17.8c-4.5,4.4-14.8,9.2-14,14.7
	s4.8,38.3,3,38.1c-1.8-0.1-1.4-32,0.4-34.2c1.8-2.1,3.2-3.2,5.6-3.2c2.4,0,8.6-0.4,9.7,0.4c1.1,0.8,3.4,20.8,3.4,24.4
	s-0.4,7.5-4.8,9s-16.8,0.6-16.8,3.5c0,3,14,50,17.8,50.4c3.8,0.4,12-3.1,13.6-4.4s3.2-7.3,0.7-14c-2.5-6.6-1-10-4.9-10.9
	c-4-0.8-21.9-1.1-23,2.5c-1.1,3.7,20,52,22.6,54.5c2.5,2.5,5.2,6.9,13.4,7.6s11.2-0.4,13.6-3.4c2.4-3,26.8-50,30.2-53.1
	s9.5-6.9,14.8-2.3s6.5,8.2,6.5,10.9c0,2.7-0.6,8.8,0,11c0.6,2.3,5.9,8.5,5.9,12.7c0,4.2-4.9,19.3-6.4,23
	c-1.4,3.7-13.7,24.7-13.4,30.1s28.1,135.7,27.5,137.6c-0.6,2-1.7,3.8-7.8,3.5s-19.8,0.7-21.9-1.7c-2.1-2.4-12.4-46.2-13.6-54.9
	s-11.2-48-11.9-42.9s9.5,58.9,9.5,58.9s8.8,39,10.9,42.1c2.1,3.1,10.9,5.9,16,6.6c5.1,0.7,13.4,1.6,16.9,0.1s39.1-29.5,39.1-29.5
	L795,588l3.7-98.3c0,0,2.1-54.6,2.1-60.4c0-5.8,2-70.4,2-70.4s1.8-46.2,1.8-51.1c0-4.9,1.8-32.8,0.8-33.9s-47.6-10.6-51.2-8.5
	c-3.7,2.1-82.3,48.8-82.2,52.5s11.7,94.7,9.9,92.6c-1.8-2.1-16.4-84-16.9-81.7s5.1,57,5.4,63.2c0.3,6.2,4.1,27.8,2.4,30.1
	c-1.7,2.3-15.2,28.7-17.9,31.9c-2.7,3.2-6.2,9.6-7.9,9.6s-8.9-25.1-10.4-32c-1.6-6.9-15.7-64.7-18.2-90.2
	c-2.5-25.6-3.7-25.3-0.3-27.2c3.4-2,87.1-52.5,90.5-52.5s15.4,0.4,12.4,1.7c-3,1.3-91.2,49.7-91.8,51.8s1,3.8,5.2,4
	c4.2,0.1,17.8,0,19.9-0.6c2.1-0.6,90.4-55.5,94.6-55.5s68.9,3.5,76,4c7.1,0.4,22.6,1.4,23.6-0.6s2-4.8-8-4.5s-20.8,0.7-23,2.7
	c-2.3,2-2.8,19.8-2.8,19.8l-10.2,239.4c0,0-2.5,65.1-1.1,65.8s44.6,1.3,46.7,2.4c2.1,1.1,2.7,3.1,0,3.7c-2.7,0.6-3.2-4.1-3.2-11.2
	c0-7.2,2.4-79,2.4-79l5.6-124.5c0,0,5.1-109.8,5.6-111.5c0.6-1.7,0.6-2.8,3.8-2.8s48.6-0.6,48.4-1.4c-0.1-0.8-4.4-3.7-18.6-4
	c-14.3-0.3-24.1-0.8-24.7,0.4c-0.6,1.3-8.8,254.3-8.8,254.3s-3.5,78.6-2.5,80.5c1,1.8,0.7,2.1,3.1,2.5c2.4,0.4,27.8,3.7,35.6,3.5
	c7.8-0.1,12.1-0.4,12-2.1c-0.1-1.7,10.3-335.4,10.3-335.4s3.1-4.2,6.8-2.1c1.6,1.3,1,11.2,1,11.2L922,402l-3.8,105.6l-2.4,71.6
	c0,0-1.7,24.4,0,24.8c1.7,0.4,24,2.5,27.4,2.8s12.6,1.6,12.6,0s4.2-69.7,4.2-69.7l4.5-74L968,409l4.2-73c0,0,1.1-59.3,2.7-63
	c1.6-3.7,4.4-10.6,8.8-10.9c4.4-0.3-0.6,62.1-0.6,62.1l-3.2,71.4l-5.2,90.9l-3.2,62.8c0,0-3.1,61-5.4,62.5c-2.3,1.6-37.6-2-43.1-2.4
	s-60-5.9-70.3-7.2s-63.2-7.8-59-4.5c4.2,3.2,72.1,12.4,72.1,12.4s62.8,7.1,70.7,7.6s62,7.1,64.7,5.6c2.7-1.4,10.3-113.2,10.3-113.2
	l10-159c0,0,3.8-75.7,4.1-82.2s0-11.7,0-11.7l-23.2-0.7l-517,3.5l-10.7,304.5c0,0,19.2,1.8,21,3c1.8,1.1,1.6,22.2,1.6,22.2
	s1.6,1.7,3.4,1s-1.4-2.1-1.4-2.1s-32.3-0.6-34.7-1.4c-2.4-0.8-2.5-13.6-2.5-14.1c0-0.6,3.7-111,3.7-111l3.1-90.6l4-85.6
	c0,0,0.4-36.7,0.6-38.4c0.2-1.7,1-9.2,13.7-8.9c12.7,0.3,289.7-4,289.7-4l260.9-4.5c0,0,12.4-2.6,11.7,10.2
	c-0.7,12.8-26.4,433.1-30.5,431.9s-2.1-12-3.2-14.1c-1.1-2.1-3.7-1.8-6.8,1.8c-3.1,3.7-147.1,169.6-148.7,172.2
	c-1.6,2.7-4.1,9.9-3.2,13.6c0.8,3.7,1.7,6.2,3.2,5.9c1.6-0.3,2.3-1.7,2.3-3.7s4.5-10.2-7.1-12.8c-11.6-2.7-336-66.2-339.7-60.8
	s-15.2,19.5-0.4,22.6s274.2,55.2,283.9,56.8c9.7,1.6,37.8,5.6,48.7,5.6s15.2,0.6,20-4.1s139.1-170.7,141.3-173.5
	c2.3-2.8,7.5-6.1,6.9-2s-11.9,52.4-12.1,62c-0.3,9.6-0.1,20.3,3,22.4c3.1,2.1,5.1,3.2,8.5-0.4s51.7-74.1,56.5-76.8s7.9-1,6.6,2.8
	s-46,103.1-46.7,111.2c-0.7,8.2-3.5,21.6-0.1,26.7c3.4,5.1,7.3,7.6,11.3,5.1s84.8-92.6,106.3-163.2s201.9-57,201.9-57"/>
</svg>
