<?xml version="1.0" encoding="utf-8"?>
<!-- Generator: Adobe Illustrator 28.1.0, SVG Export Plug-In . SVG Version: 6.00 Build 0)  -->
<svg version="1.1" id="_x3C_Layer_x3E_" xmlns="http://www.w3.org/2000/svg" xmlns:xlink="http://www.w3.org/1999/xlink" x="0px"
	 y="0px" viewBox="0 0 1353 1268.9" style="enable-background:new 0 0 1353 1268.9;" xml:space="preserve">
<style type="text/css">
	.st0{fill:none;stroke:#4B4C4C;stroke-width:3;stroke-miterlimit:10;}
</style>
<path class="st0" d="M1.2,836.9l450.6,1.9c0,0,5.6-5.3,4.9-17.3c0,0,128.8,53.5,127.2,50.8c-1.5-2.6-128.8-55.7-128.8-55.7v-24.5
	c0,0,215.7,84.7,215.7,82.8c0-1.9-216.8-88.5-216.8-88.5l0.8-17.7c0,0,161.1,62.9,163.4,61.4c2.3-1.5-164.1-68.5-164.1-68.5
	l-1.1-36.1c0,0-15.1-5.6-16.6-7.9c-1.5-2.3-1.9-6.4,2.3-8.3c4.1-1.9,55.7-28.2,58.7-27.1s48.6,76,45.6,79.8
	c-3,3.8-87.3-34.3-87.3-34.3l113.1,44.9l130.5,51.8c0,0,13.9,51.6,13.9,71.9c0,20.3-11.3,82.1-13.9,81.7
	c-2.6-0.4-256.4-141.2-260.5-137.8c-4.1,3.4-9.4,12.4,0,17.3s253.4,144.6,257.1,145.7c3.8,1.1,101.3-23.3,101.3-23.3l371.2-94.9
	c0,0,1.5-2.6-21.5,2.6c-23,5.3-442,113.3-448.4,110.7c-6.4-2.6,4.1-9.4,9-21.8s11.7-29.4,12-59.1c0.4-29.7-12-94.5-12.8-93.4
	s252.2-66.3,247.7-66.6S702.2,820,702.2,820l-130.6-49.7l603.1-36.1L564,768c0,0-11.7,1.5-16.9-8.3c-5.3-9.8-67-118.2-65.1-121.2
	c1.9-3,16.6-0.8,16.6-0.8s-0.8,8.3,1.5,13.9c2.3,5.6,57.6,105.8,58.4,102c0.8-3.8-0.5-78.1-3.8-95.6c15.4-0.8,102.8-4.9,100.5-7.2
	c-2.3-2.3-105-0.4-105-0.4s-45.2-63.6-46.3-63.6c-1.1,0-4.5-2.6-4.5,3.8c0,6.4,5.3,46.3,1.5,44.4c-3.8-1.9-6.4-50.1-6.4-50.1
	s2.3-10.2,12-5.3c9.8,4.9,99.4,48.2,99,44.8c-0.4-3.4-129.1-54.6-134-63.6s-0.8-17.3,4.9-17.3s9-0.8,9,3c0,3.8-3.6,11.3,1.5,14.1
	c5.1,2.8,189.7,87.5,192,85.3c2.3-2.3,20.9-52.5,20.9-63.2c0-10.7,2.8-75.1-4-79.1c-6.8-4-212.3-77.9-212.3-74.5
	c0,3.4,2.3,28.8,5.1,28.8c2.8,0,151.3,54.2,154.7,57.6c3.4,3.4-156.4-56.5-155.9-50.8c0.6,5.6-0.6,32.8,4,33.9
	c4.5,1.1,111.2,41.8,107.9,42.4c-3.4,0.6-107.3-36.7-107.3-33.9s-4,22,0,23.2s172.2,69.5,170.5,71.7c-1.7,2.3-167.7-67.8-170.5-64.4
	c-2.8,3.4-7.1,16.4-4.5,18.6c2.5,2.3,193.7,98.3,193.7,98.3s42.4,1.1,42.4-1.7c0-2.8-36.1,1.1-36.1-3.4s13-39.5,16.4-53.1
	c3.4-13.6,8.5-90.4-0.6-96.6s-227.6-81.3-229.3-84.7c-1.7-3.4-4-7.9,13.6-9c17.5-1.1,121.4-6.2,147.4-9
	c26-2.8,275.6-41.8,280.1-41.8s14.7-1.7,29.9,3.4c15.2,5.1,196.5,54.2,199.3,56.5c2.8,2.3-436,80.2-434.8,82.4
	c1.1,2.3,439.9-80.2,444.4-76.2c4.5,4,18.1,33.9,18.1,52.5c0,18.6-1.1,94.3-16.9,96.6c-15.8,2.3-390.2,68.9-388.5,71.2
	c1.7,2.3,348.4-64.9,353.5-60.4c5.1,4.5,43.5,26.5,35.6,27.7s-425.8,39-425.2,40.7s425.8-42.9,431.4-35c5.6,7.9,15.8,18.6,14.1,37.8
	c-1.7,19.2,3.4,54.8,2.3,62.1s-5.8,26.4-5.6,18.3s2.6-30.3,7.7-24.5c5.1,5.8,18.8,23.2,20.5,31.1c1.7,7.9,6.2,52,3.4,62.1
	s-31.1,72.8-29.4,77.9s37.8,3.4,37.8,3.4l140-1.7"/>
</svg>
